<svg version="1" xmlns="http://www.w3.org/2000/svg" width="1349.333" height="1349.333" viewBox="0 0 1012.000000 1012.000000"><path d="M0 506v506h1012v-55.6l-16.7.3c-9.3.2-17.4-.1-18.2-.6-1-.6-1.4-3.3-1.5-9.2l-.1-8.4 11 .1c6.1 0 14.3.2 18.3.5l7.2.4v-38.3l-7.3-.6c-3.9-.3-22.6-.8-41.5-1.1-18.9-.4-34.9-.8-35.7-1.1-1.5-.6-3-7.3-1.8-8.4.4-.5 15.2-1.1 32.8-1.4 17.6-.4 36.3-.9 41.5-1.2 5.2-.4 10.1-.7 10.8-.7.9 0 1.2-4.4 1.2-18.2v-18.2l-6.8-.6c-3.7-.3-14-.6-23-.7-8.9 0-17-.4-17.9-.7-1.4-.5-1.5-2.7-1.1-18.3.3-9.8.8-18.3 1.2-18.9.5-.7 6.6-1 19.7-.8 15.3.3 19.2.6 20 1.8.6 1 .9 1 .9.1 0-.8 1.2-1.1 3.3-1l3.2.3.3-161.5c.2-160.7.2-161.5-1.8-169.5-5.1-19.4-7.3-23.6-10.8-20.1-1.3 1.3-1.6 6.5-1.8 31.5-.1 16.6-.4 30.4-.6 30.8-.3.5-.5 3.5-.6 6.8-.3 5.7-1.9 23.3-2.7 28.5-.2 1.4-.6 4.3-.9 6.5-1.3 9.5-3 17.6-3.8 18.1-.4.3-.8 1-.8 1.5 0 .6.5.7 1.1.3.8-.5.8-.1 0 1.3-.5 1.1-1.3 3.5-1.6 5.4-1.1 6.6-1.7 8.9-2.3 8.9-.4 0-.8 1.2-.9 2.6 0 1.5-.8 3.3-1.7 4-.9.8-1.4 1.2-1.2.9.2-.3-.7-1.8-2.1-3.3-1.3-1.5-5.5-7.4-9.3-13.2-3.8-5.8-8.8-12.8-11.2-15.7-9.2-11-24.7-28-28.4-31.1-2.1-1.8-5-4.3-6.4-5.6-3-2.9-15.8-11.2-19.2-12.5-2.7-1-26.6-4.6-37.1-5.6l-6.8-.7.7-7.6c.3-4.2 1.2-13.7 2-21.1 2.4-22.9 3.3-48.8 3.5-100.1.3-57.3-.3-81.5-2.1-88.5-.7-2.8-1.4-7.9-1.4-11.5-.1-3.6-.5-7.6-.9-9-.5-1.5.1-.9 1.3 1.3 1.3 2.3 2.5 3.5 3.2 3.1.8-.5.9-.2.5.9-.3 1-.2 1.7.3 1.7.6 0 1-.8 1-1.8 0-1.3.2-1.4.9-.4.7 1.1.9 1.1 1.4-.1.3-.8.3-1.8-.1-2.2-.4-.4-.7-1-.8-1.3 0-.4-.4-1.4-.8-2.3-.4-.9-.6-2-.5-2.5.5-3-.2-3.7-1.7-1.6-1.5 2.2-5.4 3.1-5.4 1.2 0-.5.7-.7 1.5-.4 1 .4 1.5 0 1.5-1.1 0-.9.5-1.3 1.1-.9.7.4 1-.2.8-1.7-.2-1.3 0-3 .4-3.7.9-1.4-.2-1.6-2.2-.3-.9.6-1 1.1-.2 1.5.6.4 1.1 1.3 1.1 1.9-.1.7-.5.6-1.3-.4-.7-.9-1.8-1.4-2.4-1.2-.7.3-1.3 0-1.3-.7 0-.6.4-.9.9-.5 1.6.9 3.2-3 1.8-4.5-1-1-.7-1.1 1.6-.6 3.3.8 4.7-1.5 2.6-4.1-1.2-1.4-1.2-1.6 0-.8 1.1.6 1.3.4.8-.8-.3-1-.2-1.7.2-1.7.5 0 .7-1 .3-2.2-.4-1.8-.2-2 1.4-1.4 1.6.6 1.6.4-.4-1.4-2-1.9-2.1-2.3-.7-3.6.8-.9 1.8-2.7 2.2-4.2.3-1.5 1.4-3.8 2.4-5 1.6-2.1 1.7-2.6.4-4.5-.8-1.2-2.3-2.9-3.5-3.7-1.1-.8-2-2.1-2-2.8 0-2-5.3-9.2-6.5-8.8-.6.2-1.1-2.4-1.2-6.3-.2-10-.3-10.2-2-12-.9-.9-1.9-1.6-2.2-1.6-.8 0-.1-1.9 1-2.5 1-.7-1.1-6-2.3-6-.5 0-.8-.9-.8-2.1 0-1.1-.4-2.9-1-3.9-.5-1-1.1-3.8-1.2-6.3-.2-2.5-.6-4.3-1-4-.5.2-.8-.5-.8-1.5 0-1.1-.7-2.5-1.5-3.2-.8-.7-1.2-1.7-.8-2.3.3-.6.1-.7-.5-.3-1.1.7-1.7-1.1-1.3-4.1.1-.6-.3-1.4-.9-1.8-.6-.4-.8.1-.4 1.2.3 1-.3.4-1.2-1.2-1-1.7-2-4.6-2.2-6.5-.2-1.9-.8-4-1.4-4.5-.8-.7-.9-.5-.5.7.3 1 .3 1.9-.2 2.2-.6.4-1.1-2.8-1.4-9.1 0-.7-.4-1-.8-.8-1.1.7-1.9-2.3-1.2-4.2.4-1 .2-1.4-.4-1-1.3.8-4.3-5.1-3.6-7 .3-.7 0-1.3-.6-1.3s-1.1-1.4-1.1-3c0-1.7-.4-3-.9-3s-.8-1.2-.8-2.7c-.1-1.4-.7-3.1-1.4-3.7-.8-.6-1.4-2.5-1.3-4.1 0-1.7-.2-3.5-.6-4-.4-.6-1.1-3.5-1.5-6.5-.8-6.5-6.4-18.7-17.6-38.2-4.4-7.5-7.9-14-7.9-14.3 0-.3 16.6-.5 36.9-.5 30.9 0 37.2.2 38.4 1.4.8.8 3.3 7.3 5.6 14.5 2.2 7.1 5.5 16 7.2 19.8 3.6 8 5.6 13.8 9.8 28.8 1.7 6 3.5 12.3 4 14 .5 1.6 1.9 7.5 3.1 13 1.2 5.5 2.6 10.9 3.1 12 .5 1.1 1 3.8 1.2 6 .1 2.2.5 4.2.9 4.5.4.3.9 5 1.2 10.5.3 5.5 1 13.4 1.6 17.5 1.8 12.6 6 50.8 7 63.5 1.4 18.4 1.8 27.3 3 63.5 1 32.2 1.7 51.5 2 55.3.1 1.5.4 1.4 2.2-.8 1.6-2 2.7-2.5 5.2-2.2 1.7.2 4.1 0 5.4-.4 1.6-.6 2.2-.5 2.2.6 0 .8.6 1.3 1.3 1.1.6-.1.9-.1.4.1-.4.3-.7 1.3-.7 2.3 0 1.2-1.3 2.5-3.4 3.5-2.1 1-3.9 2.8-4.5 4.6-.8 2.4-1.5 2.9-4.4 2.9-3.2 0-3.5.3-4.1 3.5-.4 2-.4 4.5-.1 5.6.9 2.7 3.9 2 4.3-.9.3-2.2 3.2-3.2 3.2-1.1 0 .5-.6.7-1.2.3-.8-.4-1-.3-.5.2 2.5 2.7 7.7-2.1 7.7-7.1 0-3.5.7-4.4 3.9-5 1.3-.2 2.6.6 3.7 2.3 2.1 3.3 5.6 6.2 6.6 5.5 1.3-.7.9-4.1-.7-5.7-1.4-1.4-1.4-1.8 0-4 2.3-3.4 4.4-2.6 7.1 2.5 1.3 2.4 2.3 4 2.4 3.5 0-.5.6-.4 1.3.2.7.6 2.3 1 3.5.9 2.9-.2 5-6.5 3.6-10.5-.7-1.9-.5-4.1.8-7.9 1.8-5.3 3-28.3 3.2-62 .1-7.9.4-14.3.9-14.3.4 0 .7.2.7.5s1.8 7.2 3.9 15.3c2.2 8.1 5.5 21.4 7.4 29.7 2 8.2 5.2 21.3 7.2 29 2 7.7 4.2 16.7 5 20 1.4 6.4 10.8 42.8 13 50.5 1.1 3.7 1.3-33.6 1.4-216.8L1012 0H0v506zM550.5 51.3l91.9.2 8.9 17c8.7 16.8 19.6 34.3 23.4 37.8 2.5 2.2 5.6 1.3 4.8-1.4-1.4-4.2.7-1.3 7.3 10.3 3.8 6.8 11.8 20.6 17.7 30.8 14.1 24.4 20.4 37.1 25 50.5 2.1 6 6 16.1 8.7 22.3 2.7 6.2 6.7 16.4 8.9 22.5 4.6 12.9 9.1 23.9 9.6 23.4.1-.2-.8-3.7-2.2-7.7-3.4-10-3-11.9.8-4 1.7 3.6 3 7.4 2.9 8.5 0 1.6 0 1.7.4.2.3-.9 1-1.4 1.6-1.1.7.4.8.2.4-.5-.4-.6-.2-1.8.4-2.6.8-1 .9-1.5.2-1.5-.6 0-1.4.5-1.8 1.2-.5.7-1 .3-1.6-1.2-.5-1.2-.7-2.4-.5-2.6.5-.6 10.7 6 10.7 6.9 0 .4-.4.5-1 .2-1.5-.9-1.2.4.5 2.1 1.3 1.4 1.5 1.4 1.5 0 0-2.3 2.1-1.9 2.7.5.4 1.3.8 1.6 1.3 1 .6-1.1 1.4-.6 6.8 3.9.6.6 1.2.8 1.2.5 0-.3.9-.1 2 .5s1.8 1.6 1.4 2.2c-.4.7-.9.6-1.5-.3-.6-1-.9-1-.9-.2 0 1.6 1.7 2.6 2.5 1.3 1-1.5 1.7-1.2 5.3 2.1 1.7 1.6 3.2 2.6 3.2 2.2 0-.4.5-.1 1 .8.5.8 1.1 5.1 1.5 9.5.3 5.3.2 7.2-.4 5.9-.9-1.9-1-1.9-1 .2-.1 1.4.5 2.3 1.4 2.3 1.1 0 1.5 1.1 1.3 4.2l-.1 4.3-.4-3.8c-.2-2-.8-3.5-1.3-3.2-.4.3-.6 1.5-.2 2.7.3 1.4.2 1.9-.7 1.4-.6-.4-.9-1.2-.6-1.7.4-.5.2-.9-.3-.9-1.2 0-1.2 6.2 0 7.7.6.7.5 1.4-.2 1.8-.8.5-.8 1.1.1 2.1.7.9.8 1.4.1 1.4-.6 0-1.3.8-1.5 1.7-.4 1.6-.6-1.1-1.1-14.9 0-1.4-.4-2.4-.8-2.2-.8.5-1.3-3.2-.9-7.6.1-2-.1-2.2-.9-1-.8 1.3-1 1.2-1.1-.5-.1-1.1-.2-2.6-.2-3.3.1-.6-.3-1.2-.7-1.2-.4 0-1.1-1.1-1.4-2.5-.4-1.4-1.1-2.5-1.7-2.5-.7 0-1 2.4-.8 6.7.2 3.8.2 9.7 0 13.3-.2 5.2-.5 6-1.2 4s-.8-1.6-.5 1.7c.2 2.4 0 4.6-.5 4.9-.5.3-.9 1-.9 1.5 0 .6.5.7 1 .4.6-.3 1-.1 1 .4 0 .6-.4 1.1-.9 1.1s-.7 1-.4 2.2c.4 1.9.3 2.1-.7.8-1-1.2-1.1-1.2-.5.5.4 1.1 1.1 4.1 1.5 6.6.5 2.6 1.8 7.9 3 11.9 3.3 11 6.7 29 8.6 45 3.7 31.9-.9 66.1-13.2 97.7-3 7.9-4.4 13-4.4 16.3 0 6.7-5.3 17.9-11.1 23.5l-3.7 3.7c-5.6 5.4-13.9 22.9-18.6 39-2.5 8.4-4.8 16.1-5.1 17-.4 1-.5 1.8-.2 1.8.2 0 4.9-2 10.3-4.4 15.7-6.9 26-9.9 32.1-9.2 4.9.6 5.8.3 15.5-4.8 19.7-10.5 42-18.8 66.1-24.6 6.7-1.7 14.4-3 17.2-2.9 7.2.1 13.8 2 15 4.4.6 1.1 2.9 5.1 5.2 9 2.3 3.8 4.9 8.9 5.8 11.2 1 2.4 2 4.3 2.4 4.3.3 0 .6 1 .7 2.2 0 1.3.7 4.4 1.4 7 .8 2.6 1.1 5 .7 5.4-.4.4-5.7-.5-11.9-2.1-11.1-2.7-24-3.5-24.6-1.6-.2.6-.9.8-1.7.5-2.1-.9-2.6 1.2-.7 3.2 4.9 5.4 29.6 25 34.9 27.7 1.5.8 3.8 2.6 4.9 3.9 2.4 2.5 6.1 13.8 7.4 22.1.4 2.8 1.9 9.2 3.4 14.2 1.4 4.9 3.2 13.3 3.9 18.5l1.4 9.5-3.8 3.7c-2.1 2-6 5.1-8.6 6.9-2.6 1.8-5 3.5-5.3 3.9-1.7 2.1-13.1 10-15.3 10.5-3.5.9-4.2-.8-5.7-14.5-1.1-10.5-3.4-19-6.6-24.5-.7-1.1-1.9-4.6-2.8-7.7-2-7.1-4.2-9-3-2.7.5 2.4.8 6 .7 7.9-.1 1.9-.2 6.3-.2 9.8-.1 5.8-.3 6.2-2 5.3-1-.6-2.1-.7-2.5-.4-.3.3-.6.1-.6-.5s-.9-1.3-1.9-1.7c-1.1-.3-2.2-1.4-2.5-2.3-.3-.9-2.3-3.6-4.5-5.8-2.1-2.3-5.3-6.8-7.1-10.2-1.7-3.3-4.3-7.1-5.8-8.4-2.5-2.3-2.3-1.4.8 3.2 2.4 3.5 7.9 17.6 8.6 21.9.3 2 1.4 7.6 2.4 12.6 2.7 13.3 4.3 33.6 3.8 48.7l-.4 13.3-5.4 10.4c-6.5 12.6-12.2 19.1-16.8 19.1h-3.1l2.4-6.5c1.4-3.6 2.5-7.7 2.5-9.2 0-4.2-7.2-10.4-16.5-14.2-12.5-5-17.9-7.4-19.2-8.5-.9-.9-.7-2.5.9-7.1 4.4-13-.5-29.2-11.9-39.5-6.5-5.8-18.6-13-22-13-2.4 0-7.3-4.3-7.3-6.4 0-1.5-7.4-8.6-8.9-8.6-.5 0-2.2-1.1-3.8-2.4-1.6-1.3-3.9-2.6-5.2-2.8-1.8-.2-2.9-1.8-5.2-7.9-3.4-8.8-6.2-11.8-12.1-13-2.4-.5-15.2-1.2-28.5-1.6l-24.3-.6 6-3.5c6.4-3.8 18.5-15.8 31.5-31.2 5.6-6.6 9.6-10.3 13.1-12.2l5.1-2.8 3.7-15.2c6.6-26.8 6.8-27.9 6.2-28.5-.3-.4-1.9.5-3.4 1.9-3.3 3.1-8.1 6.2-8.7 5.6-.4-.4-.1-2.8 3.4-27.3 1.1-7.7 2.3-16.3 2.5-19 .3-2.8.9-8.8 1.4-13.5 1.4-12.2.6-59.6-1.2-79-1.5-16.4-3.6-30.1-5.7-37.3-2-7.3-2-2.9 0 10.4 3.4 22.4 4.4 37.3 4.5 63.9.1 24.8-.8 50-1.8 53-.3.8-.9 6.4-1.5 12.5-2.9 31.7-4.2 37.6-11.6 51.9-4.3 8.3-14.4 24.8-14.5 23.5 0-.3.9-2.4 2-4.7 3.8-7.8 8.9-24.6 11-36.2 3-16.5 3.5-25.1 3.5-55.5-.1-27.9-1.1-38.2-5.2-51.3-2.2-7-3.4-6.6-1.7.5 1.8 7.7 1.8 26.9-.1 43.7-1.8 16.2-2.1 17.9-9.1 45.9-5.1 20.8-5.8 22.7-13.8 39-8.3 16.9-17.6 33.3-30.5 53.5-6.2 9.9-6.6 10.3-9.4 9.8-1.6-.3-3.9-.6-5.1-.6-1.9 0-2.1-.4-1.8-3.6.5-4.3 1.6-3.4 2.1 1.8.1.5 1.5.8 3.1.8 2 0 3-.5 3-1.5 0-2.3-.4-3-1.4-2.7-.5.2-.5-.3.1-1s1.3-2 1.7-2.8c.3-.8.4-.5.2.7-.2 1.3 0 2.6.5 2.9.5.3.7 1 .4 1.5-.3.5.1.6 1 .3 1.2-.5 1.3-1 .4-2-.6-.7-.9-1.9-.6-2.6.4-.8.6-.7.6.4.1 1 .5 1.8 1 1.8 1.2 0 2.3-2.9 1.5-4.1-.3-.5-.1-.9.3-.9 1.3 0 1.1-3.6-.2-3.8-.5 0-2.1-.4-3.4-.8-1.8-.5-2.2-.4-1.9.7.3.8 1.1 1.3 1.7 1.2.6-.2 1.1.3 1.1 1.1 0 .9-.8 1.2-2.5.8-1.4-.2-2.2-.8-1.9-1.3.3-.5.2-1.9-.2-3.2-.7-2.1-.8-2.1-1.9.8-.7 1.6-1 3.6-.7 4.4.3.9.1 1.2-.6.7-.8-.4-1.2-.1-1.2 1 0 1-.2 1.5-.6 1.2-.3-.3.2-5.6 1-11.7 1.9-13.4 2-17.9.5-16.4-.5.5-1.4 4.1-2 7.8-1.1 7.7-1.4 8.5-3.7 8.5-3.5.1-8.2 3.7-12.6 9.7-2.5 3.5-4.9 6.3-5.2 6.3-.3 0 1-2.3 3-5 4.2-5.9 4.5-6.8 1.2-4.7-1.3.9-6.1 2.5-10.7 3.6-12.1 2.8-27.9 8-27.9 9.1 0 1.3-35.3 1.3-59.5 0-18.4-1-70.4-5.5-75.5-6.5-1.4-.3-5.9-.9-10-1.4-5-.6-12.9-2.8-24-6.8-36.2-13.2-76.8-21.8-120-25.4-6.9-.6-12.7-1.3-13-1.6-.3-.2-.7-8.9-1-19.1-.3-11.1-1-19.5-1.7-20.7-.6-1.1-4.4-7-8.5-13-11.7-17.6-23.3-40.4-32.9-64.8-1.3-3.4-1.5-4.7-.6-4.7 2.1 0 3.1 1.1 12.8 13.5 18.1 23 28.1 35.5 28.6 35.5.6 0-.5-1.8-3.2-5.5-1.2-1.7-4.6-6.8-7.5-11.5-5.2-8.2-5.4-8.8-5.8-16.6l-.4-8.1 8.2-7c9.2-7.9 16.4-12.5 24-15.4l5.3-2-.7 2.3c-2.9 10.2-3.6 14.1-3.6 20.3 0 7.9 2.2 21.4 4.6 29 1.7 5.2 6.1 14.5 6.9 14.5.2 0 1.5-.4 2.9-1 2-.7 2.6-1.7 2.6-3.9 0-1.7.5-4.2 1.2-5.6.9-2 .9-4.4-.2-10.6-.7-4.4-1.1-8.1-.9-8.3.2-.2 3.9-.6 8.2-.9 7.6-.5 7.8-.5 7.2 1.6-.5 2.1-.5 2.1.7-.1.6-1.2 2.3-2.5 3.7-2.9 1.4-.3 3.4-1.4 4.4-2.4 2-2.2 3.4-2.4 3.9-.8.3.8 2 .5 5.2-1 5.3-2.3 7.6-2.6 7.6-1.1 0 1.9 1.7 1 2.9-1.6.7-1.5 2.7-3.2 5-4.1 3.8-1.5 3.9-1.6 2.9-5.2-.6-2-1.7-4.9-2.5-6.5-1.4-2.7-1.4-2.8.3-2.1 7.2 3.1 19.9 7.6 22.1 7.9 1.6.2 3.7.7 4.8 1.2 1.1.4-1.1-1.8-5-5.1-3.8-3.2-8.7-7.4-10.8-9.2l-3.8-3.4 4.8.5c2.6.2 5.7.8 6.8 1.2l2 .7-2-2.2c-1.1-1.3-6.5-5.3-12-9-9.1-6.1-17.6-10-33-15.3l-3.9-1.3.3-5.5c.1-3 .5-5.7.7-5.9 1.6-1.6 21.9 7.1 28 12 2.1 1.7 4.7 3.5 5.7 4.1 1.8.9 1.8.8.1-1.7-3.3-5-13.9-11.1-26.8-15.5l-7.9-2.6.2-21.5c.1-11.8.6-28.7 1.2-37.7 1-15.7.8-19.3-1.1-16.3-1.2 2.1-2.5 27.9-2.5 52.9 0 17.3-.3 22.2-1.3 22.2-.7 0-1.7-1-2.2-2.3-1.2-2.6-10.6-57.4-11.6-66.8-.6-6.3-.5-6.6 2-8.3 3.1-2 2.7-3.5-.7-2.9l-2.4.5-.7-19.2c-.8-20.1.7-59.8 2.5-66 1.1-3.7 1.6-7.5 1.8-12.8 0-1.8.5-3.1 1-2.8.5.4.7-.3.4-1.3-.5-2.1 2.3-13.6 10.3-41.8 3-10.5 5.4-20.2 5.4-21.4 0-4.4 11.1-35.3 22.4-62.3 6.2-14.8 7.1-18.6 4.7-18.6-3.4 0-51.1 91.9-64.4 124-13.5 32.6-30.3 80.1-32.2 91-.8 4.1-2.1 10.9-2.9 15-.9 4.1-1.6 8.8-1.6 10.4 0 2.4.2 2.7 1.5 1.6 1.9-1.6 1.9-.4.4 7.1-.6 3-1.3 7.5-1.5 10.1l-.3 4.8 2.2-2.1c1.2-1.1 2.3-1.5 2.5-.9.2.5.9.7 1.5.3 1.3-.8 3.7-1.3 3.7-.8 0 .2-2 5.3-4.4 11.2-5.3 13.1-17.9 51.5-19.6 59.8-.7 3.3-1.7 6.9-2.2 7.9-1.4 2.5-8.8 28.6-8.8 30.8 0 .9-2 3.8-4.4 6.5-4.5 4.9-4.5 6.4 0 5.5 2.2-.4 2.4-.2 2 1.9-.5 2.2-4.5 30.1-4.7 33.1-.2 2.7-2-6.9-4.3-23.5-5.6-39-6.1-94.9-1.1-130.2 4.9-35.3 14.1-74.1 18.6-78.6 1.2-1.2 1.8-2.7 1.4-3.7-.3-.9-.3-1.3.1-.9 1.2 1.2 3.2-1.3 2.7-3.4-.3-1.1-.1-3 .5-4.2.6-1.2 2.2-6.3 3.7-11.2 1.5-5 4-12.2 5.5-16 1.5-3.9 3.7-9.5 4.9-12.5 12.6-33.5 16.2-42.2 22.2-54.3 2.7-5.3 4.7-9.7 4.5-9.7-1.2 0-7.3 7.3-12.7 15.4-11.8 17.4-24.8 49.7-30.8 76.1-1.1 5-2.9 12.1-4 16-1 3.8-3.8 13.7-6 22-5.6 20.3-10.6 45.1-12.5 62-3.4 30.8-3.9 42.9-3.9 97-.1 58.5.3 65.5 5 88.8 2.3 11.6 2.4 12.9.9 14-1.4 1.1-.8 3.2 4.8 19.2 10.5 29.8 9.7 28.1 13.4 27.7 4.2-.4 45.8 1.6 58.7 2.8 14.5 1.4 43.1 5.7 57.5 8.6 34 6.9 98 28.8 99.7 34.1.4 1.1-6.1 2-21.7 2.8-4.7.3-10.7.9-13.5 1.5-2.7.5-7.9 1.1-11.5 1.4-3.6.2-9.8 1.5-13.7 2.8-4.4 1.5-7.3 2-7.3 1.4-.1-.6-.8.2-1.6 1.7-1.1 2.1-2.1 2.7-3.5 2.4-1-.3-1.9-.1-1.9.3 0 .5 7.1 1 15.8 1.3 8.6.2 21.3 1.2 28.2 2.1 10.3 1.5 16.5 1.7 35.5 1.2 32.1-.9 46.9-1.7 47.5-2.6.3-.5 10.2-1.3 22-1.9 42.6-2.3 67.7-5 84-9.3l11.5-3.1 42.8.1c23.6 0 44.2.4 45.8.7 2.2.5 2.9 1.2 2.9 3 0 1.3.9 6.1 2 10.7 5 20.7 5.6 35.5 2.5 60.8-.7 6.3-1.7 15.5-2 20.5-.5 5.7-1.4 10.3-2.5 12.5-2.5 4.6-8.4 18.5-10 23.3-.8 2.5-2.1 4.2-3.8 5-1.5.6-7.9 4.6-14.2 8.8-23.6 15.7-42.8 23.2-71.9 28-6.3 1-11.6 1.7-11.8 1.5-.2-.1 2.4-2 5.8-4.1 3.4-2.1 10.5-8 15.8-13.2 8-7.8 9-9 5.7-7.4-2.2 1.1-4.4 1.7-5 1.3-.6-.3-1.5-.7-2.1-.8-.5 0-1.6-.2-2.3-.2-.7-.1-1-.7-.7-1.2.3-.6.1-1-.4-1-.6 0-1.1.4-1.1.9s-1.8 1.1-4.1 1.3c-2.9.3-4.3-.1-4.9-1.2-.5-.8-1-1.2-1-.8 0 .4-1.3.3-3-.2-2.1-.6-3-.5-3.1.3 0 .9-.2.9-.5.1-.7-1.6-4.4-.3-19.4 6.9-19.9 9.5-40 16.7-46.4 16.7-3.5 0-13.5-4.2-24.6-10.2-5.8-3.1-14.8-7.3-20-9.3-5.4-2.2-10.2-4.8-11.3-6.1-2.5-3.2-17.6-14-22.9-16.4-3.7-1.7-3.9-2-1.8-2.1 3.8-.1-18.2-5.6-28.5-7.1-12.4-1.7-65.1-1.4-98 .6-51.1 3.1-53.1 3.2-62 .7-4.4-1.2-10.7-3-14-3.8-13.4-3.6-52.2-20.4-54-23.3-.3-.5 3.4-2.1 8.2-3.7 7.1-2.2 9.5-3.5 12.9-7 2.3-2.3 4.4-4 4.6-3.7.3.2.5-1.4.6-3.7.1-2.2.4-4.5.7-4.9.3-.5.1-1.2-.5-1.5-.7-.5-.8-1.1-.1-1.9.7-.8.1-1.6-2.2-2.6-1.8-.8-4.1-2.2-5.1-3.2-1.1-1-2.6-1.8-3.4-1.8-.7 0-6.6-.7-13-1.4-6.4-.8-19.3-1.6-28.5-1.8l-16.8-.4-2.4-2.9c-1.3-1.7-3.8-5.8-5.6-9.2-2.5-4.9-3.1-7.3-3-11.9 0-3.1.5-6.2 1.1-6.8.5-.5 1-2.7 1-4.7 0-2.1.5-4.1 1-4.4.6-.3 1-1.4 1-2.3 0-1 .9-3.4 1.9-5.5 2-4 3.1-7.5 3.7-12.2.1-1.7.6-5.3.9-8 .4-2.8.8-5.7.9-6.5.5-4.2 3.1-11.8 3.8-11.4.4.3.8-.1.8-.9 0-1.3 5.7-4.6 9.1-5.2.9-.2 4.7-1.2 8.5-2.4 5.8-1.7 21.9-5.5 38.9-9.1 2.2-.5 6.4-.9 9.3-1 2.9 0 5.2-.5 5.2-1 0-.6-1.3-3.6-2.9-6.8-4.4-8.8-15.2-33.5-15.7-36-.5-2.4-1.2-2.5-7.4-.4l-6 2.1-3.4-6.7c-11.4-22.7-23.7-72.5-26.6-107.7-1.2-14.7-1.2-14.3 0-12.5.8 1.3 1 1.2 1-.2 0-1 .3-1.7.8-1.6 1.8.5 5-1.5 5.6-3.5.4-1.2 1.1-9.9 1.6-19.2 1.2-21.4 1.9-32.9 2.5-38 .2-2.2.7-6.7 1.1-10 .3-3.3.9-6.2 1.3-6.5.4-.3.7-3.2.7-6.5s.3-7.5.6-9.3c.4-1.7.3-3-.2-2.7-.4.3-1-.2-1.4-1-.3-.8-.2-1.5.2-1.5s.8-.9.8-2-.5-2-1.1-2c-.5 0-.4-.4.4-.9 1-.7 1.1-1.3.2-3-.7-1.1-.8-2.1-.2-2.1.5 0 .8-1.8.7-4.1-.1-2.2.1-4.2.6-4.5.5-.3.5-1 .2-1.6-.4-.7-.2-.8.4-.4.7.4 1.3.1 1.3-.6.1-.7.2-1.8.4-2.3.1-.6.3-1.6.3-2.3.3-1.9 2-1.4 2.7.8.4 1.1 1.1 1.8 1.6 1.5 1.3-.9 1.1-5.3-.3-5.8-1-.3-.9-.8.2-2.2 1.1-1.4 1.1-1.7.2-1.1-1.1.7-1.2.4-.4-1 .5-1.1 1.2-5.1 1.5-8.9.8-9.3 1.4-13.1 2.5-15.2.6-1 1.2-3.2 1.5-5 .3-1.8 1.6-5.6 3-8.5 2.6-5.7 4.4-12 3-10.3-1.6 1.8-8.2 18.1-8.8 21.6-.3 1.9-1.7 6.5-3.2 10.2-1.4 3.8-3.3 9.9-4.3 13.5-3.8 14.3-5 17.8-8.7 25.1-2.1 4.2-3.7 8.2-3.7 8.8.1.7-.5 1.3-1.3 1.3-.7 0-2 1.4-2.7 3-.7 1.7-1.5 2.7-1.9 2.4-.3-.4.6-2.5 2.1-4.8 2.6-3.8 5.2-9 5.2-10.2 0-.3-1-.4-2.2-.2-1.3.2-4.1 2.7-6.8 6.3-5.4 7.1-30 31.5-31.7 31.5-1 0-1.3-2.7-1.3-10.4v-10.4l5.3-6.8c13.4-17.2 29.5-42.6 40.6-63.7 5.9-11.4 6.3-13.1 2.5-11.7-2.2.9-2.7.7-3.1-.9-.3-1.2-1.1-1.7-1.9-1.4-1.2.4-1.2 0-.5-2 .5-1.4.8-2.7.6-2.9-.2-.2.9-.5 2.5-.6 1.7-.1 3 .3 3 .8 0 .6.5.8 1.1.5.6-.4 1.3.2 1.6 1.4.4 1.7.8 1.9 1.9 1 .8-.6 1.4-1.6 1.4-2.1 0-2.1 6-13.4 8.7-16.5 1.5-1.7 5.5-6.6 8.8-10.9l5.9-7.7 1.4 3.3c.7 1.8 1.1 4 .8 4.9-.3.9.4.4 1.7-1.2 1.3-1.5 4.7-8.7 7.7-16 6.8-16.7 21.4-46 27.7-55.4C279 111.4 294.1 91.8 305 81c21.1-21.2 26.4-24.9 40.5-28.1 6.3-1.4 65.6-2.7 97-2.1 8.8.2 57.4.4 108 .5zm-377.6.6c.9.6 1.1 1.5.6 2.7-.5 1.1-.8 2.2-.7 2.6.1.3-.6 3.2-1.4 6.5-.8 3.2-1.5 8.2-1.5 11 0 3.4-.5 5.3-1.2 5.3-.9 0-.9.2-.1.8.9.5.9 2.2.1 6.2-1.1 6-6 23.5-8.2 29-.7 1.9-2.1 5.6-3.1 8.2-.9 2.7-2.1 4.8-2.6 4.8s-.7.4-.4.8c.3.5-1.3 4.4-3.4 8.8-2.2 4.3-4 8.3-4 8.7 0 .4-2.1 5.1-4.7 10.4-3.5 7.3-4.8 9.1-5.5 7.9-.8-1.4-3.6-1.6-20.7-1.6-27 0-40.8-.9-41.5-2.7-.3-.8-.2-3.3.4-5.6.5-2.3 1.2-6.5 1.5-9.2 2.5-19.4 9.9-40.8 26.6-77.1 3.8-8.4 6.9-15.6 6.9-16.2 0-.6.6-1.3 1.3-1.5 2.2-.9 60.2-.7 61.6.2zm479.7 4.6l1.6 3-2.6-3c-1.4-1.7-2.5-3.7-2.5-4.5-.1-1.3 0-1.3 1 0 .5.8 1.7 2.8 2.5 4.5zm-446.3 110c-.3.9-.8 1.4-1 1.1-.3-.3-.2-.9.2-1.5.9-1.6 1.5-1.3.8.4zm639.5 2c-.3.3-.9-.2-1.2-1.2-.6-1.4-.5-1.5.5-.6.7.7 1 1.5.7 1.8zm-624.5 1c-.3.9-.8 1.4-1 1.1-.3-.3-.2-.9.2-1.5.9-1.6 1.5-1.3.8.4zm628.4 4.7c-.3.8-.6.5-.6-.6-.1-1.1.2-1.7.5-1.3.3.3.4 1.2.1 1.9zm-643.5 1c-.7.7-1.2.8-1.2.2 0-1.4 1.2-2.6 1.9-1.9.2.3-.1 1.1-.7 1.7zm1.5 3c-.3.8-.6.5-.6-.6-.1-1.1.2-1.7.5-1.3.3.3.4 1.2.1 1.9zm644.3-.8c0 .3-.4.8-1 1.1-.5.3-1 .1-1-.4 0-.6.5-1.1 1-1.1.6 0 1 .2 1 .4zm-655.2 7.1c-1.2 2.4-2.3 4.3-2.6 4.1-.4-.5 3.6-8.6 4.3-8.6.3 0-.5 2-1.7 4.5zm4.2 2c-.7.9-1.5 1.3-1.7 1.1-.6-.6 2-3.6 2.6-3 .2.2-.2 1-.9 1.9zm-2.5 13.5c.3.5.1 1-.4 1-.6 0-1.1-.5-1.1-1 0-.6.2-1 .4-1 .3 0 .8.4 1.1 1zm2.9 14.6c.3.8.2 1.2-.4.9-.6-.3-1-1-1-1.6 0-1.4.7-1.1 1.4.7zm-14.7 2.3c0 1.1-.5 1.8-.9 1.5-.4-.3-.5-1.1-.1-1.9.7-2.1 1.2-1.9 1 .4zm4.4 2.8c-.8 1.5-1 1.5-1.1.2 0-1.7 1-3.2 1.8-2.5.2.3-.1 1.3-.7 2.3zm3.4.7c0 1.3-.2 2.7-.5 3-.5.4-.6-4.3-.1-5.2.4-.8.7.1.6 2.2zm-10.3 1.8c-.8.8-.9.4-.5-1.3.4-1.3.8-1.8 1.1-1 .2.7-.1 1.8-.6 2.3zm4.2-.6c.3.8.2 1.2-.4.9-.6-.3-1-1-1-1.6 0-1.4.7-1.1 1.4.7zm-6.2 9.9c-.5 2.9-3.2 3.4-3.2.7 0-2.2.8-3.2 2.5-3.2.8 0 1 1 .7 2.5zm1.1 5.4c.9.9.9 1.4-.2 2-.7.5-1.1 1.3-.8 1.8.3.5-1 1-2.9 1.1-3.6.3-4-.4-2.3-4.1 1.1-2.5 4.1-2.9 6.2-.8zm10.1 4.4c.3-.3.6-.1.6.5 0 .7-.9 1.2-2.1 1.2-1.3 0-1.8.4-1.3 1.2.5.8.1.7-1-.2-1.1-.8-1.4-1.6-.7-1.8.6-.2.8-.8.5-1.4-.4-.6.1-.6 1.3.1 1.1.6 2.3.7 2.7.4zM179 244c0 .5-.4 1-1 1-.5 0-1-.5-1-1 0-.6.5-1 1-1 .6 0 1 .4 1 1zm689 11.8c0 1.2-.3 1.2-1.5.2-.8-.7-1.5-1.3-1.5-1.5 0-.1.7-.2 1.5-.2s1.5.7 1.5 1.5zm-683.5 4.9c-3.5 6.1-5.2 8-5.2 5.9 0-.8.6-1.7 1.4-2 .9-.4 1.2-1.5.8-3.3-.4-2.3-.4-2.4.4-.8.5 1.1 1 1.7 1 1.2.2-1.4.6-2.2 2-4 2.6-2.9 2.4-1.9-.4 3zm678.2-2.5c-.3.8-.6.5-.6-.6-.1-1.1.2-1.7.5-1.3.3.3.4 1.2.1 1.9zm1.3 4.9c0 .6-.4.7-1 .4-.5-.3-1-1.1-1-1.6 0-.6.5-.7 1-.4.6.3 1 1.1 1 1.6zm4 .3c0 .3-.4.8-1 1.1-.5.3-1 .1-1-.4 0-.6.5-1.1 1-1.1.6 0 1 .2 1 .4zm-7.5 1.5c.3.5.1 1.2-.5 1.6-.5.3-1-.1-1-.9 0-1.8.6-2.1 1.5-.7zM177.8 271c-.7 1-1.4 1.8-1.5 1.6-.6-.6.9-3.6 1.8-3.6.5 0 .4.9-.3 2zm140.6 51.4c.6 2.3.1 2.8-4.6 5.2-2.9 1.4-11.5 6-19.1 10.1-7.6 4.2-14 7.3-14.3 7-1.4-1.4 22.4-51.1 34.2-71.4l1.9-3.3.6 25c.4 13.7.9 26 1.3 27.4zM864 275c0 .5-.2 1-.4 1-.3 0-.8-.5-1.1-1-.3-.6-.1-1 .4-1 .6 0 1.1.4 1.1 1zm-690.3 3.2c-.3.8-.6.5-.6-.6-.1-1.1.2-1.7.5-1.3.3.3.4 1.2.1 1.9zm-27 4c-.3.7-.5.2-.5-1.2s.2-1.9.5-1.3c.2.7.2 1.9 0 2.5zm24.5 0c-.7.7-1.2.8-1.2.2 0-1.4 1.2-2.6 1.9-1.9.2.3-.1 1.1-.7 1.7zm800.3-1.2c.3.5.1 1-.4 1-.6 0-1.1-.5-1.1-1 0-.6.2-1 .4-1 .3 0 .8.4 1.1 1zM869 282c0 .5-.2 1-.4 1-.3 0-.8-.5-1.1-1-.3-.6-.1-1 .4-1 .6 0 1.1.4 1.1 1zm-1.5 2c.3.5.1 1-.4 1-.6 0-1.1-.5-1.1-1 0-.6.2-1 .4-1 .3 0 .8.4 1.1 1zm-699.2 2.3c-2.6 4.1-6.6 9.7-7 9.7-.6 0 .4-1.6 4-6.8 2.8-3.8 4.9-6 3-2.9zM157 303.4c0 .2-.8 1-1.7 1.7-1.6 1.3-1.7 1.2-.4-.4 1.3-1.6 2.1-2.1 2.1-1.3zm-3 4c0 .2-.8 1-1.7 1.7-1.6 1.3-1.7 1.2-.4-.4 1.3-1.6 2.1-2.1 2.1-1.3zm643.7 8.8c-.2 1.8-.4.6-.4-2.7 0-3.3.2-4.8.4-3.3s.2 4.2 0 6zM147.3 315c-.3 1.2-.8 1.9-1.1 1.6-.5-.6.5-3.6 1.2-3.6.2 0 .2.9-.1 2zm644.9 4c-.2 1.6-.6 3-.8 3-.2 0-.4-1.4-.4-3 0-1.7.4-3 .8-3 .5 0 .7 1.3.4 3zm2.1 3c.3 1.1.1 2-.4 2s-.9-.9-.9-2 .2-2 .4-2 .6.9.9 2zm-613.7.2c.4.7.4 1 0 .6-1.2-1-3.5 1.5-2.6 2.7.5.6.4 1.7-.2 2.5-.8 1.2-.9 1.2-.4-.2.3-1 .1-2-.4-2.3-.6-.4-1 .4-1 1.7 0 1.8-.2 2-1 .8-.7-1.1-.2-2.2 1.7-4.2 3.1-3.2 3-3.2 3.9-1.6zm633.9 3.8c0 .8-.8 1.6-1.7 1.8-1.3.2-1.8-.3-1.8-1.8s.5-2 1.8-1.8c.9.2 1.7 1 1.7 1.8zM174 328.3c0 .2-1.5 1.6-3.2 3.3l-3.3 2.9 2.9-3.3c2.8-3 3.6-3.7 3.6-2.9zm145 1.2c0 2.8 3.9 25.3 7.4 43 2.5 12.1 4.7 23.7 5.1 25.7l.6 3.7-5.3-.5c-2.9-.2-7.2-.7-9.5-.9-3.1-.3-4.3-.1-4.3.9 0 .9 2.4 1.5 8.4 2 4.6.3 9.1.9 9.9 1.2 1.3.5 5.1 12.3 4.3 13.1-.2.2-3.6-.1-7.6-.7-10.1-1.4-20.6-.4-32.5 3.2-13.9 4.2-25.2 9.9-37.3 19-9.8 7.3-12.2 8.7-12.2 7.2 0-.4 1.1-4.1 2.4-8.3 1.3-4.2 5.7-18 9.6-30.6 4-12.7 10.2-31.1 13.8-41.1l6.5-18.1 19.6-9.6c19.5-9.5 21.1-10.2 21.1-9.2zm474.7 4.7c-.3.8-.6.5-.6-.6-.1-1.1.2-1.7.5-1.3.3.3.4 1.2.1 1.9zM180 338.5c0 .8-.2 1.5-.4 1.5s-.6-.7-1-1.5c-.3-.8-.1-1.5.4-1.5.6 0 1 .7 1 1.5zm-11.3 5.7c-.3.7-.5.2-.5-1.2s.2-1.9.5-1.3c.2.7.2 1.9 0 2.5zm3 7c-.3.8-.6.5-.6-.6-.1-1.1.2-1.7.5-1.3.3.3.4 1.2.1 1.9zm4.4 2.6c-.5 2.5-.6 2.5-.9.4-.2-1.2-.8-2.2-1.4-2.2-.6 0-.5-.6.2-1.5 1.7-2.1 2.9-.3 2.1 3.3zm1.9 4.4c0 1.8-.2 2-.9.8-.6-.8-.7-1.8-.5-2.2.9-1.4 1.4-.9 1.4 1.4zm-3 2.8c-.8.5-1.7.7-1.9.4-.3-.3.1-.9.9-1.4.8-.5 1.7-.7 1.9-.4.3.3-.1.9-.9 1.4zm769-.4c0 .8-1.9 1.3-2.4.6-.3-.5.1-.9.9-.9s1.5.2 1.5.3zm-766.3 2.6c-.3.8-.6.5-.6-.6-.1-1.1.2-1.7.5-1.3.3.3.4 1.2.1 1.9zm-1.8 4.5c-1.1 2.9-1.1 3.6-.1 3 .4-.3.8 7.4 1 17.1.4 20.6-.9 28.4-10.2 60.9-5.5 19.2-13.7 52.1-15.6 62.8-4.2 23.8-.8 44 9.4 55.3l3.7 4-2.8 2c-1.5 1-6.1 3.8-10.2 6.1l-7.4 4.2.6-16.7c.4-9.2.7-39.7.7-67.9 0-44.8.2-51.2 1.5-51.2.8 0 1.5.4 1.5.9 0 .4-.5.8-1 .8-.6 0-1 1.7-.9 3.8.3 4.2 2.9 5.6 2.9 1.5 0-1.3.5-2.3 1-2.3.7 0 .7-.7-.1-2.1-.9-1.7-.8-2 .2-1.4.9.6 1.1.2.7-1.3-.5-1.6-.2-2.2 1-2.2 1 0 1.3-.3.7-.8-1.6-1.1-1.4-5.4.2-4.8.8.3 1.5-.5 1.9-2 .4-1.7.9-2.2 1.4-1.4.5.8.9.7 1.3-.5.4-.9.3-1.3-.3-1-.5.3-1.4-.5-2.1-1.7-1.1-2-1-2.1.3-1 1.3 1 1.8.9 2.8-.3 1-1.2.9-1.5-.6-1.6-1.6 0-1.6-.1.3-.9 3.5-1.4 5.2-5.6 2.1-5.1-.7.1-1.3-7.6-.9-10.2 0-.4-.4-.7-1-.7-.5 0-.7-.5-.4-1.1.5-.7 1.3-.5 2.5.6 1.6 1.5 1.7 1.4 1.2-1.1-.3-1.9-.7-2.2-1.3-1.2-.7 1-.9 1-.9-.2s-.2-1.2-.9-.1c-.5.8-1.1.9-1.5.3-.6-1.1 1.1-2.7 2.8-2.7.5 0 1.1-.7 1.3-1.5.4-1.3.3-1.3-.6 0-.8 1.1-1.1 1.2-1.1.2 0-.7-.4-1-1-.7-1.3.8-1.3.2.4-7 .8-3.3 1.7-8.4 2.1-11.3.6-4.4.9-5.1 2.1-4.1 1.9 1.5 1.8 3.6-.2 4.7-1.1.6-1.3 1.2-.6 1.6.6.4 2.1-.5 3.4-1.9 1.2-1.4 2.9-2.5 3.7-2.5 1.4 0 1.4-.2.1-1-1.1-.7-.9-1.1 1.4-2 2-.7 2.6-1.5 2.2-2.7-.6-1.4-.4-1.4 1.1-.2 1 .7 1.5.9 1.1.5-.4-.5-.3-1.5.4-2.3.8-1.1.7-1.2-.5-.7-1.4.5-1.5-.1-1.2-3.8.5-4.2.5-4.2-1-1.8-1.7 3-2 2.1-.3-1.5.8-1.8 1.4-2.2 2-1.3.5.8.8 0 .8-2.2 0-2.5.3-3.1.9-2.1.6.9.6 2.4 0 3.8zm-11.2 1.5c-.3.8-.6.5-.6-.6-.1-1.1.2-1.7.5-1.3.3.3.4 1.2.1 1.9zm-1 5c-.3.7-.5.2-.5-1.2s.2-1.9.5-1.3c.2.7.2 1.9 0 2.5zm-.4 3.8c-.3 1.1-.7 2-.9 2-.2 0-.4-.9-.4-2s.4-2 .9-2 .7.9.4 2zm8.2 2c.3.5-.1 1-.9 1-.9 0-1.6-.5-1.6-1 0-.6.4-1 .9-1 .6 0 1.3.4 1.6 1zm-5 2.9c.3.5.2 1.2-.3 1.5-.5.3-.9-.1-.9-.9 0-1.7.3-1.9 1.2-.6zm171.5 28c-.1 5.2-1.3 4.1-2.5-2.2-.6-3.2-.5-3.6.9-3.1 1.2.4 1.6 1.9 1.6 5.3zm-182.5 11.9c-.8.2-1.5 1-1.5 1.8s-.4 1.4-.8 1.4-1.4 2-2.1 4.5c-.7 2.5-1.6 4.4-1.8 4.1-.7-.7 3-11.6 4-11.6.5 0 .7-.7.3-1.5-.4-1.2-.2-1.3 1.5-.2 1.6 1 1.7 1.3.4 1.5zm4 4.1c-.3.6-1.1 1.1-1.7 1.1-.6 0-.6-.6.2-1.5 1.4-1.7 2.6-1.3 1.5.4zm650.5 6.8c0 .7.4 1.3.8 1.3.9 0 2.2 3.1 7.3 18.4 5.2 15.2 6.2 27.9 3.4 41.4-2.8 13.3-9.4 25.5-15.7 28.8-2.2 1.1-2.7 1.8-1.8 2.4.8.5-.4 2-4.1 4.8-4.6 3.4-14.8 9.2-16.3 9.2-.3 0 1.1-3.4 3-7.6 4.8-10.3 9.5-24.7 8.4-25.8-.5-.5-.1-2 1-3.5 3-4.3 7.7-34.5 8.7-56.6.3-6.6 1.1-11.7 1.8-12.9.8-1 1.1-2.6.8-3.5-.3-1.2-.1-1.1 1.1.3.9 1.1 1.6 2.6 1.6 3.3zm-635.1 9c-.1 11.1 2.2 30.8 4.1 35.6.4 1.2 1.8 5.5 3 9.4 1.2 4 2.3 7.3 2.6 7.3.2 0 .4-1.7.3-3.8 0-2 .1-4.4.2-5.2.1-.9-.1-2.8-.5-4.3-.4-1.6-.2-2.7.4-2.7.5 0 1 .9 1 2.1 0 2.6 10.8 35.9 12.2 37.6.6.7.7 1.3.3 1.3-.4 0-.3.6.3 1.3.6.7 2.8 6.3 5 12.4l3.9 11.1-6.5 3.6-6.5 3.6-3.6-2.2c-6.8-4.1-10.1-7.1-15-13.2-5.7-7.2-12.9-20.3-16.6-30-2.6-6.9-2.6-7-1.1-14.5.9-4.2 4.5-17.8 8-30.2 3.5-12.4 6.7-24.5 7.1-26.8.4-2.2.9-4.1 1.1-4.1.2 0 .4 5.3.3 11.7zm-25.5-4.1c.3.8.2 1.2-.4.9-.6-.3-1-1-1-1.6 0-1.4.7-1.1 1.4.7zm-1 3c.3.8.2 1.2-.4.9-.6-.3-1-1-1-1.6 0-1.4.7-1.1 1.4.7zm647.5 9.8c2.2 2.6-1 6.3-4.4 5-1.5-.6-2.1-4.5-.8-5.7 1.1-1.2 4-.8 5.2.7zM347 459c0 .5-.4 1-1 1-.5 0-1-.5-1-1 0-.6.5-1 1-1 .6 0 1 .4 1 1zm-115.4 27.9c2.2 12.6 3.3 21.9 2.9 24-.4 2.4-.3 3.1.4 2.2.6-1 1.2.3 2.1 4.5.7 3.2 1.8 8.5 2.5 11.6l1.3 5.7-3 .6c-1.6.4-3.1.5-3.4.3-1.9-1.9-6.3-40.5-6.8-59.3-.3-8.8-.2-14.7 0-13 .3 1.6 2.1 12.2 4 23.4zM247 474c5 12.7 20.1 42.2 26.9 52.7l5.9 9.1-3.2-.9c-5.2-1.5-18.7-2.1-26.3-1.2-6.8.9-7.2.8-7.7-1.1-.2-1.2-1.7-8.2-3.1-15.6l-2.7-13.5 2.8-19.8c1.5-10.8 3.1-19.4 3.4-19 .4.5 2.2 4.6 4 9.3zm473 17.5c0 .7-.7 1.5-1.5 1.9-1.6.6-1.9-.3-.9-2.8.7-1.8 2.4-1.2 2.4.9zm0 5.9c0 .8-.5 1.8-1.1 2.2-1.4.8-3.3-1.1-2.5-2.5 1-1.6 3.6-1.3 3.6.3zm60 12.1c0 .8-.4 1.5-.9 1.5-1.3 0-2.2-1.6-1.4-2.4 1.1-1.1 2.3-.6 2.3.9zm10.8.2c.5 1.7-2.6 2.9-4 1.5-.6-.6-.7-1.5-.3-2.2.9-1.4 3.7-.9 4.3.7zM778 514c0 .5-.7 1-1.5 1s-1.5-.5-1.5-1c0-.6.7-1 1.5-1s1.5.4 1.5 1zm-59 2.2c0 1.8-.2 2-.9.8-.6-.8-.7-1.8-.5-2.2.9-1.4 1.4-.9 1.4 1.4zm52 .2c0 .3-.4.8-1 1.1-.5.3-1 .1-1-.4 0-.6.5-1.1 1-1.1.6 0 1 .2 1 .4zm-52.6 9.3c-1.8 16.8-9 31.5-22.5 45.6l-7 7.2 4.3-8.2c3.1-5.9 4.5-7.7 5-6.5.5 1.4.7 1.4.7.2.1-1.3.2-1.3 1.1 0 .8 1.3 1 1.2 1-.4 0-1 1.4-3.2 3-4.8 3.4-3.2 3.8-4.8 1.3-4.9-1.5 0-1.5-.2.2-.8 1.1-.5 2.3-.7 2.8-.4.6.4 1.1-2 .8-4 0-.4.3-.7.8-.7s1.1-.8 1.4-1.8c.4-.9 1.3-3.2 2.1-5 .9-1.8 1.1-3 .6-2.7-.5.3-.8-.3-.7-1.4 0-1.1.5-1.7.9-1.5 1.1.7 1-.3-.1-2.5-1-1.8 0-4.3 1.5-4.2 1 .1 1.5-2.7 1.5-7.2 0-1.5.4-2.7 1-2.7.7 0 .8 2.3.3 6.7zm58.2.9c-.5 1.4-.9 1.5-1.9.5-.9-.9-.9-1.4.3-2.1 1.8-1.1 2.4-.6 1.6 1.6zM713 540.1c0 .6-.4.7-1 .4-.5-.3-1-1.1-1-1.6 0-.6.5-.7 1-.4.6.3 1 1.1 1 1.6zm-1 2.9c0 .5-.2 1-.4 1-.3 0-.8-.5-1.1-1-.3-.6-.1-1 .4-1 .6 0 1.1.4 1.1 1zm292 .5c0 .8-.4 1.5-.9 1.5-1.3 0-2.2-1.6-1.4-2.4 1.1-1.1 2.3-.6 2.3.9zm-255 1c0 .8-.7 1.5-1.5 1.5s-1.5-.7-1.5-1.5.7-1.5 1.5-1.5 1.5.7 1.5 1.5zm-16.7 3.1c-1.6 2.5-1.6 2.7 0 3.9 1.5 1.1 1.4 1.3-.9 2.3l-2.5 1.2.6-4.2c.6-3.9 1.8-5.7 3.8-5.8.4 0 0 1.2-1 2.6zm-30.2 4.1c-1.1 2.1-2 3.5-2.1 3.1 0-1.2 3.3-7.8 3.8-7.4.2.2-.6 2.1-1.7 4.3zm54.4 2.3c0 1.3-.6 2.5-1.4 2.8-1 .3-1.2 0-.8-1.1.3-.9.1-1.7-.5-1.9-.7-.3-.8-1-.4-1.7 1.2-1.9 3.1-.7 3.1 1.9zm-44.1 5.1c-2.3 8-9.5 23.9-10.5 23.3-.5-.3-.6.1-.3.9 1 2.8-4.4 11.4-11 17.4-3.9 3.6-9.9 7.6-15.4 10.4l-8.9 4.5 2.6-4.1c1.4-2.2 3.5-5.4 4.7-7 1.2-1.7 4.4-6.9 7.2-11.8 3.7-6.4 6.4-9.8 10.3-12.9 3-2.3 6.5-5.5 7.8-7 1.3-1.5 2.8-2.5 3.3-2.2.4.3.7.2.6-.3-.4-1.3 4.4-7.3 5.4-6.7.5.3.7.2.6-.3-.3-.9 4.4-10.4 4.9-9.9.2.1-.4 2.7-1.3 5.7zM915 558c0 .5-.4 1-1 1-.5 0-1-.5-1-1 0-.6.5-1 1-1 .6 0 1 .4 1 1zm-714.5 4c.3.5-.1 1-.9 1-.9 0-1.6-.5-1.6-1 0-.6.4-1 .9-1 .6 0 1.3.4 1.6 1zm-26.9 12.7c-1 1-1.9-.5-1-1.8.6-1.1.8-1.1 1.2 0 .2.7.1 1.5-.2 1.8zm765.7 3c.9.9-1.3 3.4-2.4 2.7-1.4-.8-1.1-3.4.4-3.4.8 0 1.7.3 2 .7zM175 581c0 .5-.4 1-1 1-.5 0-1-.5-1-1 0-.6.5-1 1-1 .6 0 1 .4 1 1zm478 40.8c0 .5-.7.9-1.5.9s-1.2-.4-.9-.9c.3-.4.9-.8 1.5-.8.5 0 .9.4.9.8zM794.6 700c9.9 5 11.4 6.8 11.4 13.1 0 9.4-.7 10.6-29.5 54.4-10 15.2-20.1 32.8-28.9 50.3-3.1 6.2-6 11.2-6.5 11.2s-1.3-.9-1.6-2c-1.6-5-11-10-19-10-2.1 0-4-.9-5.8-2.8-1.5-1.6-2.5-3.1-2.1-3.4.3-.4-.3-1.1-1.4-1.7-3.9-2.1-4.4-6.3-1.6-16.8 1.3-5.3 2.7-10 3-10.5.3-.5 2.3.6 4.3 2.5 2.5 2.3 5.9 4 10.3 5.2 9.5 2.5 10.4 1.4 1.6-1.9-9.4-3.4-15.4-8.2-14.4-11.4 1.9-6 25.6.1 38.3 10 3 2.2 5.6 3.9 5.9 3.6 1-1-9.8-9.7-15.1-12.2-6.6-3.2-16.4-5.6-22.8-5.6-2.7 0-4.7-.4-4.5-.8.2-.4 1.8-4.4 3.6-8.9 3.1-7.6 10-17.4 13.1-18.8 1.5-.6 5.5.5 13.9 3.7 2.9 1.1 5.5 1.8 5.8 1.6.8-.8-7.6-5.4-12.3-6.8-2.4-.7-4.3-1.5-4.3-1.8 0-.8 8-11.2 8.6-11.2.3 0 1.4 1 2.4 2.2 1 1.3 2.1 2 2.4 1.7.4-.3-.3-1.8-1.4-3.2l-2.1-2.7 3.2-4c1.8-2.2 3.8-4 4.6-4 .7 0 5 1.8 9.4 4.1 13.1 6.5 10.9 3.8-4.5-5.6l-3-1.8 2.3-1.8c1.3-1.1 1.9-1.9 1.5-1.9-.5 0 .2-.7 1.4-1.6 1.3-.9 3.1-1.3 4.2-.9 2.1.7 2.7-.4 1-2.1-.7-.7.7-2.3 4-4.8l4.9-3.7 4.7 2c2.6 1.2 6.4 3.7 8.5 5.6 5.6 5.1 7.1 4.3 1.9-1-2.4-2.4-6.3-5.3-8.7-6.2-2.4-1-4.3-2.1-4.3-2.6 0-.4 2.2-.7 4.9-.7 3.7 0 6.7 1 12.7 4zm-.1-2.2c-.3.3-1.1 0-1.8-.7-.9-1-.8-1.1.6-.5 1 .3 1.5.9 1.2 1.2zm111 16.3c.6.6.5 2-.3 4.1-1.7 4.5-7.4 13.6-8.8 14.2-1.6.6-3.4-7.4-3.4-15.1v-5.6l5.7.7c3.2.4 6.2 1.1 6.8 1.7zM813 737.6c2.5 1.1 6.3 2.7 8.5 3.4 6.7 2.1 11 4.7 14.3 8.5 1.8 2 3.2 3.9 3.2 4.4 0 3.3-6.7 18.1-10.3 22.9-.8 1-3.4-1.1-10.7-8.3-5.4-5.2-10.1-9.5-10.5-9.5-.4 0 2.2 3.2 5.6 7 13.3 14.6 16.9 19.1 16.9 20.9 0 1.9-7.2 12.2-13.9 19.7l-3.4 3.8-4.4-4.9c-2.4-2.8-7.2-8.9-10.5-13.7-3.4-4.8-6.4-8.5-6.6-8.3-.8.8 7 13.6 12.6 20.7 7.6 9.6 7.5 9.3 5.8 12.5-1.9 3.9-13.6 14.8-14.5 13.7-.4-.5-3.1-4.3-5.9-8.4-5.5-8.1-14.7-17.8-15.8-16.7-.4.4 1.3 2.8 3.7 5.4 2.5 2.7 6.3 7.5 8.6 10.8 9.3 13.8 9.5 17 2.4 27.2-6.7 9.6-9.1 11.3-15.5 11.3-4.6 0-5.6-.4-8.6-3.5-4.2-4.3-8.6-4.6-15.4-1-7.3 3.9-8 3.6-11.6-5.1l-3.2-7.7 4.2-4c2.3-2.2 4.8-5.4 5.7-7.1.9-1.7 1.7-3.3 1.9-3.5.4-.4 11.4 7.9 11.4 8.6 0 .3-1.1 1.4-2.5 2.5-4.6 3.6-7.4 11.8-4 11.8.9 0 1.5-.9 1.5-2.3 0-3.1 4.7-9.5 7-9.7.3 0 2.2 2.7 4.3 6 3.6 5.8 5.7 7.5 5.7 4.7 0-4-15-20.6-20-22.2-1.1-.3-2-1.1-2-1.6 0-1.5 7.5-16.1 17.3-33.4 8-14.3 17.7-29.4 33.7-52.7l5.4-7.8 2.5 1.7c1.4.9 4.6 2.7 7.1 3.9zm120.2 3.8c4.3.4 8 1.2 8.3 1.7.4.5-.2.6-1.1.2-1.2-.4-1.5-.3-1 .6.5.7 1.6 1.1 2.6.8 1.4-.4 1.9.3 2.3 2.7.3 1.7.1 3.5-.4 4-.5.6-.9-.1-.9-1.7 0-1.6-.5-2.7-1.4-2.7-1.7 0-1.6 5.6.3 8.9 1 1.8 1 2.5 0 3.5-.9.8-1 .8-.5-.1.4-.7.3-2-.2-2.9-.6-1.2-.9-.8-.9 1.5 0 1.7.5 3.1 1.1 3.1.6 0 .5.5-.2 1.2s-1.2 2-1.2 3-.3 1.8-.7 1.9c-8.6 1.2-21.4 1.2-22.7-.1-.5-.5-1.2-6.1-1.4-12.3-.6-15.4-1-15.1 18-13.3zm37.2 25.2c.3.8.2 1.2-.3.9-.6-.3-1.4.3-2 1.2-.6 1.1-1.1 1.3-1.1.5 0-1 1.9-4 2.6-4.2.1 0 .5.7.8 1.6zM358.5 794c8.8 1.8 9.8 2.1 17 5.1 8.2 3.4 10.5 4.8 8.9 5.5-5.5 2.3-21.9 13.2-26 17.3-4.5 4.5-5.7 5.2-10.3 5.8-4.5.5-6.1.2-12.9-3-4.2-2-11.3-5.2-15.7-7.2-21.2-9.7-25.5-11.9-25.2-12.9.2-.6 4.1-3.4 8.7-6.3 7.7-4.9 8.8-5.2 15.4-5.5 12.1-.5 34.8.2 40.1 1.2zm369.6 27c3.2.9 10.6 7.1 8.3 7-.5-.1-4.3-1.9-8.4-4-7.3-3.9-7.2-5 .1-3zm-44.7 36.1c.8 5.7 1.7 16 2 22.9.5 10.4.4 12.9-.9 15l-1.6 2.5.5-3.6c.2-2 .1-4.1-.4-4.5-.4-.5-1-8.3-1.3-17.4-.3-9.6-1-18.1-1.8-20.3-1.1-3.2-1.1-4 .1-4.7.8-.5 1.6-.8 1.7-.6.2.1.9 5 1.7 10.7zm173.6-7.6c0 .8-.5 1.7-1.2 2.1-.7.4-.8.3-.4-.4s.2-1.2-.3-1.2c-.6 0-1.1.6-1.1 1.4 0 1-.7 1.3-2.1 1.1-1.6-.3-1.9 0-1.5 1.2.5 1.1.2 1.4-1 .9-1.3-.5-1.5-.2-1.1 1.4.3 1.3 0 2.3-.9 2.7-.9.3-1.3 1.2-.9 2.1.4 1.1.2 1.2-.8.4-1-.8-1.3-.5-1.5 1.6-.1 1.4-1.5 4-3.1 5.7-1.5 1.6-3.4 3.9-4 5-1 1.6-1.1 1.6-.7.2.3-1.1.2-1.5-.4-1.2-.6.3-1 1.5-1 2.5s-.6 2.3-1.2 2.7c-.7.4-2.4 2.1-3.8 3.6-1.8 2-2 2.6-.7 2.2 1.6-.7 3.7 1.9 2.5 3-.6.6-13.3 1.8-17.3 1.7-1.6-.1-3.2.2-3.5.7-.3.5-1.8 1-3.5 1.2-1.6.2-3.8 1-4.7 1.7-1 .8-2.4 1.2-3.3.9-.9-.4-1.5-.1-1.5.9 0 .8-.5 1.2-1 .9-.6-.4-.7-1.2-.3-1.8.4-.7-.1-.6-1 .2-1.3 1-1.5 1.7-.6 2.7.6.8 1.6 1.1 2.2.7.6-.3.7-.1.3.5-.4.7-2.7 1.2-5.2 1.2-3.2 0-4.4.4-4.4 1.5 0 .8-.7 1.5-1.5 1.5s-1.5.6-1.5 1.2c0 .9-.4.8-1-.2s-1-1.1-1-.3c0 .7-.7 1.3-1.7 1.3-2.3 0-.8 1.3 2 1.6 1.2.1 2.5.3 3 .3.4.1.7.6.7 1.2 0 .5-.4.8-.9.4-.5-.3-1.2-.1-1.5.4-.4.5-5.4.8-11.8.5-12-.4-14.3.5-3.1 1.3 4.3.3 7.2 1 7.9 1.9.9 1.1 1.3 1.2 1.6.3.5-1.5 2.8-.3 2.8 1.4 0 .8-.3.8-.9-.2-.6-.9-1.1-1-1.5-.2-1 1.5-6.6 1.4-6.6-.2 0-.8-.3-.8-.9.2-.5.8-1.6 1.1-2.4.8-1.1-.4-1.4-.1-1 .8.3.8.9 1.3 1.3 1 .5-.3 1.1-.1 1.5.5.4.6-.6 1-2.5 1-1.7 0-2.9.4-2.6.8.3.5-.1.9-.8.9-.9 0-1.2-.7-.9-1.6.5-1.4.4-1.4-.8.1-.8.9-2.3 1.8-3.4 2.1-1.8.4-1.8.5.2.6 1.2 0 2.5.6 2.8 1.1.4.6 1.2.7 1.8.4.7-.4.8-.3.4.1-.4.5-2.9.8-5.5.8-3.7-.2-4.2 0-2.2.7 2.3.7 2.4.8.3.9-1.2.1-2.5.6-2.9 1.3-.5.7-.2.9.9.5.8-.3 2.8-.2 4.4.3 2.1.6 2.3.8.8.9-1.2.1-2.7.7-3.4 1.3-1.1 1-1.3 1-.7 0 .5-.8 0-1.2-1.6-1.2-1.9 0-2 .2-.8 1 1 .7-.4.9-4.7.6-4.3-.2-6.3.1-6.7.9-.3.8.2 1.1 1.5.8 1-.3 2.5 0 3.2.6.8.6 1.7.9 2 .6.4-.3.4-.2.1.2-.3.5-.9.8-1.2.8-.4.1-1.7.6-2.9 1.3-1.9 1.1-2.4.9-3.3-.9-.9-1.6-1.4-1.8-2.6-.9-.7.7-1.1 1.6-.8 2.1.3.5 0 .9-.5.9-.6 0-1.1-.5-1.1-1.1 0-.7-1.1 0-2.5 1.5-1.8 1.9-2.5 2.2-2.5 1.2 0-.9-.4-1.6-1-1.6-.5 0-.7.7-.4 1.5.5 1.1.2 1.3-1.2.8-1.3-.5-1.5-.3-.9.7.6.9.4 1.1-.5.5-.8-.5-1.7-.2-2.4.7-.6.8-1.5 1.6-2.1 1.8-2.7.7-4.2 1.4-5.7 2.8-1 .8-1.8 1.2-1.8.9 0-.3-1.1.5-2.5 1.7-1.4 1.3-5 3.6-8.1 5.2-3 1.5-5.9 3.3-6.5 4.1-.7.7-1.9 1.3-2.8 1.3-.9 0 1.5-2.1 5.4-4.6 3.8-2.4 7.2-4.8 7.5-5.3.3-.4 1.2-1.1 2-1.4.8-.4 2.9-1.6 4.5-2.7 1.7-1.1 3.8-2.3 4.8-2.6 1.5-.6 2.5-2.4 1.2-2.4-.3 0-3.1 1.6-6.1 3.5-5.8 3.8-9.4 4.7-5.5 1.5 1.7-1.5 1.9-2 .8-2-.9 0-1.8.4-2.2 1-.3.5-3.4 2.3-6.8 4.1-3.4 1.7-7.4 4-8.9 5.1-1.6 1.1-2.8 1.7-2.8 1.4 0-.4 2.5-2.2 5.6-4.2 3.1-2 5.3-3.8 5-4.2-.9-.9-3.6-1.1-3.6-.4 0 .4-1.1.7-2.6.7h-2.5l2.8-2.3c1.5-1.2 12.5-8.4 24.3-15.9s22.9-14.9 24.5-16.3c1.7-1.5 5-4 7.3-5.7 11-7.9 16.3-14.7 17.6-22.9.7-3.7.5-4.4-2-6.3-1.5-1.1-3.4-2.1-4.3-2.1-1.1 0-.9-.4.7-1.6 1.3-.9 2.7-2.7 3.2-4 .8-2 1.6-2.4 5.4-2.4 2.4 0 10.4-.7 17.8-1.5 19.2-2.3 19.8-2.4 20.8-3 .6-.3 1 0 1 .7 0 .9.3 1 .8.2.4-.6 2.3-1.4 4.2-1.8 1.9-.3 4.6-.9 6-1.2 1.4-.3 3.2-.6 4-.7.8-.1 1.7-.5 2-.8.9-1 14.1-4 15.1-3.4.5.4.9.1.9-.4 0-.6.6-1.1 1.4-1.1.7 0 2.5-.6 3.8-1.3 3.5-1.8 6.8-1.9 6.8-.2zm-121.1 13.1c.2.2.2.6 0 .8-1.2 1.2-25 16.6-25.6 16.6-.3 0-3.8 2.4-7.7 5.3-8 5.9-12.7 9-13 8.5-.1-.2.1-4.1.4-8.8l.5-8.5 10.7-1.1c10.1-1 14.5-2.5 13.3-4.5-.3-.4.2-1.2 1.2-1.7 1.4-.8 1.5-1.3.5-2.5-1.8-2.1.2-2.7 9.6-2.9 4.2 0 6.2-.3 4.3-.5-2.6-.3-3.1-.7-2-1.4 1.2-.8 6.7-.3 7.8.7zm-58.2 9.6c-.3.7-.5.2-.5-1.2s.2-1.9.5-1.3c.2.7.2 1.9 0 2.5zm2.6 10.8c.4 3.3.4 8.6.1 11.7-.6 5.3-1 6-4.8 8.9-9.7 7.2-38.7 26.4-39.8 26.4-.7 0-4.2 2.6-7.8 5.7-6.9 6-15.2 11.6-26.1 17.7l-6.6 3.6-187.9-.1c-103.3-.1-200.5-.5-215.9-.9-24.6-.5-26-.6-11.5-.9 10.3-.1 15.8-.6 14.5-1.1-1.1-.5-3.5-.9-5.2-.9-4-.1-4.4-1.8-.5-2.4 1.5-.2-.1-.5-3.5-.6-3.4 0-6.4-.5-6.8-1.1-.3-.5 2-.8 5.9-.6 3.6.2 7.1-.1 7.8-.5.8-.6-.4-.9-3.2-.9-2.5 0-7-.4-10-.8l-5.5-.7 8.5-.5c9.8-.6 8.9-1.5-2.5-2.7l-8-.8 14.5-.6c20.7-.9 19.7-.8 18-1.8-.8-.4-6.2-1.4-12-2-23.3-2.7-23.6-2.8-8.5-3 7.7-.1 15-.4 16.2-.7 3.3-.9 1.8-2.4-2.5-2.5-7.2-.1-8.1-1.8-1-1.8 6-.1 6.7-.3 6.5-2.1-.1-1.1-.6-2-1.2-2-3.5-.1-24.8-2.2-29-2.9-4.1-.7-2.6-.9 8.5-1.1 11.8-.3 12.6-.4 6.5-1l-7-.6 9.5-.3c7.9-.3 8.9-.5 6-1.2-1.9-.5-7.1-1.3-11.5-1.9-14.9-1.7 20-.1 77 3.5 29.7 1.9 69.1 4.4 87.5 5.5 18.4 1.1 67.7 4.3 109.5 7 164.8 10.8 153.4 10.2 157.2 7.2 1.5-1.2 4-2.7 5.4-3.3 6.2-2.4 12-12.1 14.6-24.4l.9-4 14.4.3 14.5.2 3.3-2.9c3.3-2.8 3.3-2.9 1.7-5.5-1-1.5-1.3-3-.8-3.8 1.7-2.7 2.8-9.5 2.2-13.3-.8-4.5 0-5.5 4.7-5.5 3.1 0 3.1.1 3.7 6zM646 896.6c0 .2-1.6.4-3.6.4-1.9 0-3.3-.4-3-.8.5-.8 6.6-.4 6.6.4zm147.5 3.4c.4.6-.5 1-1.9 1s-2.6-.5-2.6-1c0-.6.9-1 1.9-1 1.1 0 2.3.4 2.6 1zm-7.2 10.7c-.7.2-1.9.2-2.5 0-.7-.3-.2-.5 1.2-.5s1.9.2 1.3.5zm-616 4c-.7.2-2.1.2-3 0-1-.3-.4-.5 1.2-.5 1.7 0 2.4.2 1.8.5zm599.7 5.9c0 .2-.7.4-1.5.4s-1.5-.4-1.5-1c0-.5.7-.7 1.5-.4.8.4 1.5.8 1.5 1zm-88.6 20.9c-1.3 6.8-1.9 8.4-2.7 7-.6-1.1-.6-2 0-2.4.5-.3 1-3 1-5.9.1-4.4 1.8-9.1 2.9-7.9.2.2-.3 4.3-1.2 9.2zm9.9 4c-.3.9-.8 1.4-1 1.1-.3-.3-.2-.9.2-1.5.9-1.6 1.5-1.3.8.4zm34.3.3c0 1-.6 1.9-1.3 1.9-.8 0-.9-.6-.2-1.9.5-1 1.1-1.8 1.2-1.8.2 0 .3.8.3 1.8zm-19 .7c-2.5 1.9-4.1 1.9-2.4 0 .7-.8 2-1.4 2.8-1.4 1.1 0 1 .3-.4 1.4zm27.2 2c-.3.3-.9-.2-1.2-1.2-.6-1.4-.5-1.5.5-.6.7.7 1 1.5.7 1.8zm-11.8 0c0 .8-.3 1.4-.7 1.4-2.2-.4-3.3.3-3.3 1.8s-.2 1.6-1 .3c-.8-1.2-1-.9-1 1.2 0 2.5-.4 2.8-3.5 2.8-1.9 0-3.5-.5-3.5-1 0-.6.6-1 1.3-1 .7 0 2.2-.8 3.3-1.9 1.7-1.5 7.1-4.9 8.2-5.1.1 0 .2.7.2 1.5zm0 7.1c0 .2-1.2.4-2.7.4-2.1 0-2.4-.3-1.4-.9 1.3-.8 4.1-.5 4.1.5zm15.3.1c-.7.2-2.1.2-3 0-1-.3-.4-.5 1.2-.5 1.7 0 2.4.2 1.8.5z"/><path d="M537.4 86.5c.3 2.2 1.3 7.8 2.2 12.5.8 4.8 1.4 13.1 1.3 19-.1 5.8 0 10.9.1 11.5.1.5.1 2 0 3.2-.1 1.3.3 2.3.8 2.3s.8 1.1.7 2.5c-.2 1.4 0 2.5.5 2.5.8 0 1.3 2.4 3.6 18 1.9 13.3 4.1 39.5 3.5 40.8-.1.1.5 1 1.4 1.8.8.9 1.3 1.9 1 2.4-.3.4.4.6 1.5.3 1.3-.3 2 0 2 .8 0 1.1.2 1.1 1-.1.8-1.2 1-1.2 1 .5 0 1.4.3 1.6.8.7 1-1.4 2.6 12.2 4.3 35.8 1.1 15 .8 65.4-.3 66.6-.4.3-2.6.3-5-.1l-4.3-.7.3-26.6c.2-14.7 0-28.3-.5-30.2-.9-3.4-1-3.3-1.7 3-1.5 14-9.9 48.8-12.3 51.1-.5.4-3.2.3-6.2-.2-4.9-.9-7.2-.7-5.9.6.3.3 2.8 1.1 5.7 1.8 5 1.1 5.2 1.3 4.7 4-1.7 8.4-24 61.8-34.3 81.9l-5.8 11.3-.5-5.5-.5-5.5-.7 4c-1.3 7.5-2.2 16-2 17.9.8 6.9-9.7 68.6-11.7 68.6-.4 0-2-5.3-3.5-11.8-3-12-3.6-14-12.5-37.1-4.8-12.6-10-23.5-10.8-22.8-.2.2 1.4 4.2 3.6 8.8 6.9 15.1 17.9 46.3 18.1 51.3.1 3.1-27-35.5-36.3-51.6-15.5-27.1-31.5-69.4-33.4-88.4l-.6-6.2 2.7.5c1.4.3 2.6 1 2.6 1.5 0 .6.6.6 1.4-.1 1-.8 1.6-4.5 2-11.9.8-14.4 1.1-16.2 2.7-19.7s1.8-8.1.2-7.8c-1 .2-.9-4.3.3-8 .3-1.1-.2-2.7-1.2-3.8-.9-1-1.4-2.2-1.1-2.6.4-.3.7-.1.7.5 0 .7.4 1.2.9 1.2.4 0 .6-1.1.3-2.5-.2-1.4-1-2.5-1.6-2.5-.6 0-1.2-.8-1.3-1.8-.3-5.2-1.6-12.8-2.3-13.6-1.1-1.2 0-3.7 1.3-2.9.6.3.7.1.3-.6-.4-.6-1.2-.8-1.8-.5-.6.4-.8-.2-.3-1.7.3-1.3.3-1.9-.2-1.3-.4.6-1.7 1-2.8.8-1.9-.3-3.5 1.1-3.5 3 0 .6.7.1 1.6-1 1.5-1.8 1.5-1.8 1 .6-.3 1.4-1.1 6.6-1.8 11.7-.7 5-1.5 9-1.8 8.8-1.1-.7-1.1 61.6 0 78 1.3 20.6 3 32.3 7.2 52 3.7 16.8 5.1 16.5 1.9-.4-2.7-14-5.1-30.6-5-35.1 0-3.4.1-3.4 1.1-1 6.8 15.7 29.4 57.2 38.1 70 14.4 21.2 17.6 25.8 23.8 33.4 4.9 6.2 7 9.7 7.9 13.5.6 2.8 1.5 5.1 1.9 5.1 2.7 0 11.1-40.1 13.3-63.5l1.1-12 14.2-29.5c12.2-25.1 30.5-69 30.5-73 0-.7.7-1 1.6-.6.9.3 2.7.6 4 .6 2.4 0 2.4.2 2.4 8.7 0 11.3-5.2 46.7-8.9 60.8-1.6 6-2.8 11.1-2.6 11.3.2.2 1.7-4.3 3.5-10 5.5-17.6 8.2-32.6 11.5-63.9l.6-5.7 4.2.5c2.3.3 4.4.7 4.6.9.7.6-3.7 26-6.3 36.4-1.3 5.2-4.6 15.6-7.4 23-2.8 7.4-5 13.6-4.8 13.7.4.4 7.7-16.1 10.5-23.7 2.8-7.7 7.9-28.9 9.3-39 .6-4.7 1.5-8.9 1.8-9.3.4-.5 7.5 0 15.8.9l15 1.7 5.5 8.6c3 4.7 7 11.4 9 14.7 4.5 7.5 22.4 33.4 31.8 46 6.4 8.5 7 9.8 7.8 15.8.4 3.6.6 6.6.4 6.6-.2 0-2.5-1.1-5.2-2.4-8.5-4.3-16.6-5.9-30.1-6-8.7 0-14.9.5-20.5 1.8-18.7 4.3-45.3 16.4-66.6 30.4-13.8 9.1-18.6 13.1-10.9 9.2 2.4-1.2 5.5-2.3 7.1-2.5 1.5-.2 4.7-1.4 7-2.5l4.2-2.2-3.2 4.1c-1.8 2.2-5.1 5.7-7.5 7.8-4.3 3.8-16.6 18.5-16.6 19.8 0 .4 1.6-.7 3.5-2.4 2-1.7 6.5-4.4 10-6 3.5-1.6 8.5-4.4 11.1-6.2 4.6-3.1 4.7-3.2 4-.8-5.4 18.6-6.8 32.3-4.7 45.9 1.2 7.3 5.2 18 6.8 18 .4 0 1.7-.7 2.7-1.5 1.7-1.3 1.8-1.8.8-4-2.3-4.9-1.5-8 2.3-10.1 4.2-2.3 4.4-3.6 1.1-13.9l-2.4-7.5 2.2-.4c1.1-.2 7.1-1.4 13.1-2.6 6.1-1.3 13.3-2.6 16-3.1 5.8-1 10.6-2.9 18.9-7.8l5.9-3.4 2.3 2.8 2.2 2.8 3.4-2.9c3.1-2.7 5.6-4 11.2-5.8 1.5-.5 1.7-1.2 1.1-4.3-1-5.2-5.9-14.7-10.2-19.4-3-3.3-3.4-4.2-2.2-5 2-1.2 6.2-1.1 15.6.5 12.7 2.3 16.3 3.5 23.5 7.9 5.2 3.2 6.7 4.7 7.2 7 .9 4.5.6 65.3-.4 81.7-.5 8-1.4 20.3-1.9 27.5-2.4 34-2.4 33.1-1.1 31.8 1.4-1.3 1.3-.9 3.5-32.8 2.2-34.3 3.8-85.6 3-97.9-.6-9.1-.5-10.7.6-10.1 4.5 2.7 13 10 16.3 13.9l3.8 4.6-5 13.3c-2.8 7.2-5.8 15-6.7 17.2l-1.7 4 2.6-2.8c2.9-3.1 8.6-13.8 8.6-16.1 0-.8.4-1.6.8-1.8 1.5-.5 10.3-14.8 12.9-20.6 3.7-8.5 8-14.7 11.1-16.1l2.7-1.3-6.3-2.3c-3.5-1.3-8.9-4.3-12-6.7-7-5.4-20.1-13.9-26.2-16.8l-4.6-2.2-1.8-15.1c-1-8.4-2.6-19.9-3.6-25.7-1.8-9.7-1.9-10-1.4-3.5 1.9 27.1 1.9 25.1-.1 23.5-3.3-2.8-33.3-49.2-41.3-63.9l-4.6-8.4 5.5.6c12.4 1.5 27.6 2 28.3.9.9-1.5-.9-1.8-19.3-3.6-9.5-.9-15.9-2-16.7-2.8-1.7-1.9-7.5-15.8-6.9-16.8.3-.5 0-1-.7-1.2-.6-.2 2.3-.4 6.5-.3 4.7 0 7.7-.3 7.7-1 0-.5.4-.3 1 .5.5.8 1.2 1.1 1.6.7.4-.4-1.9-7.6-5.1-16-8.9-23.4-14.5-39.7-13.7-39.7.4 0 .2-.4-.4-.8-3-2-26.7-76.5-35.4-111.2-5.2-20.8-10.2-35.5-13.2-39l-3-3.5.6 4zM568 253.6c0 4.9 17.9 47.2 22.9 54.3 1.2 1.6 2.1 3.1 2.1 3.3 0 .5-20.6-.9-24.8-1.7l-3.2-.6.7-7.2c.4-4 .8-16.9.8-28.9 0-11.9.3-21.4.8-21.1.4.2.7 1.1.7 1.9zM550 293v13h-2.9c-1.7 0-3.2-.4-3.6-.9-.5-.9 5.4-25.1 6.2-25.1.1 0 .3 5.8.3 13zm12 163.9c0 .6-.4 1.3-1 1.6-.5.3-1-.1-1-.9 0-.9.5-1.6 1-1.6.6 0 1 .4 1 .9zM377.6 151.8c-1.1 3.5-2.5 6.6-3.3 7-.7.5-2.7 6.6-4.5 13.7-1.7 7.2-4.1 16.6-5.4 21-1.3 4.4-2.6 9.9-3 12.3-.5 3-1.1 4.2-2 3.8-.8-.3-1.3-.2-1.2.2.1.4-.5 2-1.3 3.6-1.1 2.4-1.1 3-.1 3.4 1 .3 1 .7.1 1.8-.6.8-1.5 1.1-2 .8-.5-.3-.9 0-.9.5 0 1.4 1.7 1.4 2.5.1.3-.6 1-1 1.4-1 1 0-4 20.3-5.1 20.8-.4.2-.5.9-.2 1.6.3.7-.6 6.2-2 12.2-3.7 16.4-6.5 31.5-8.4 46.5l-1.8 13.4-4.4 2.4c-8 4.2-9.3 5.2-8.2 6.3.6.6 2.5.2 5.3-1.4 7.7-4 7.4-4 7 .8-.1 2.5.1 4.4.7 4.4 1.4 0 2.2-2.5 2.2-6.5 0-3.2 2.1-6.5 4.1-6.5.5 0 .9-.5.9-1.1 0-.6-.9-.9-2-.6-1.1.3-2 .1-2-.5 0-4.2 7.7-49.3 10.5-61.3 3.6-15.2 5.4-22.5 5.8-22.5.1 0 .2 8.2.2 18.3.1 10 .7 23.4 1.5 29.7l1.4 11.5 1.2-23.5c2.1-41.4 2.6-48 3.5-47.4.5.3.6-1.5.3-4-.4-2.6-.3-4.6.2-4.6s.8-1.9.6-4.1c-.6-5.9 1.3-16.9 6.4-36.9 4.4-17.2 5.7-26.5 2-14.2zM360 213.3c0 1.4-.6 2.4-1.5 2.4-1.8 0-1.8-.2-.5-2.8 1.4-2.5 2-2.4 2 .4zM675.4 206.4c7.3 14.4 15.2 31.5 17.6 38.1 10.6 29.2 17.9 46.2 18.7 43.8 1.1-3.2-7.8-35-14.9-53.3-9.6-24.5-17.1-37.6-27.3-47.6l-7.2-7.1 13.1 26.1z"/><path d="M370.6 199.8c-.3.5.1.9.9.9s1.5-.4 1.5-.9c0-.4-.4-.8-.9-.8-.6 0-1.2.4-1.5.8zM371.1 203.9c-1 .6-1 1-.1 1.6 1.3.8 2.4.1 1.9-1.4-.3-.6-1-.7-1.8-.2zM374.6 206.2c-.3 1.3-.6 3-.6 3.8.1 2 2.3-1.9 2.5-4.3.2-2.5-1.2-2.1-1.9.5zM369.7 208.3c-.3.8.1 1.4.9 1.4s1.4-.6 1.4-1.4c0-.7-.4-1.3-.9-1.3s-1.1.6-1.4 1.3zM419.6 208.5c-.3.8-.1 1.5.4 1.5s.8.6.6 1.2c-.1.7-.1 1 .1.5.3-.4.9-.5 1.4-.1 1.3.8 1-.8-.5-2.9-1.2-1.5-1.4-1.6-2-.2zM423.6 212.7c-.6 1.4-.5 1.5.5.6.7-.7 1-1.5.7-1.8-.3-.3-.9.2-1.2 1.2zM372.2 218c0 1.9.2 2.7.5 1.7.2-.9.2-2.5 0-3.5-.3-.9-.5-.1-.5 1.8zM411.5 216.1c-.4.6-.5 1.2-.2 1.5.2.3.7-.2 1-1.1.7-1.7.1-2-.8-.4zM425.2 216.6c-1.4 1.6-.5 1.8 1.7.5.7-.5.9-1.1.5-1.4-.5-.3-1.5.1-2.2.9zM374.1 217.6c0 1.1.3 1.4.6.6.3-.7.2-1.6-.1-1.9-.3-.4-.6.2-.5 1.3zM376.5 217c.3.5.8 1 1.1 1 .2 0 .4-.5.4-1 0-.6-.5-1-1.1-1-.5 0-.7.4-.4 1zM403 220c0 1.9.3 2.1 1.2 1.2.9-.9.9-1.5 0-2.4-.9-.9-1.2-.7-1.2 1.2zM376 219.9c0 .6.4 1.3 1 1.6.6.3.7-.1.4-.9-.7-1.8-1.4-2.1-1.4-.7zM420 220.1c0 .5.5.7 1 .4.6-.3 1-.8 1-1.1 0-.2-.4-.4-1-.4-.5 0-1 .5-1 1.1zM372.5 223c-1.8 1.9-1.7 2 .4 2 1.2 0 1.9-.4 1.6-1-.3-.6-.2-1 .4-1 .5 0 1.2.6 1.4 1.2.4.8.6.9.6.2.1-.6-.5-1.7-1.2-2.3-1.1-.8-1.8-.6-3.2.9zM353.4 224c-1.3 3.8-1.1 6.7.3 6.7.8 0 1.2-.6.9-1.2-.2-.7.2-2.4.9-3.9.8-1.5 1-2.4.5-2.1-.4.3-1-.1-1.3-.7-.2-.7-.8-.2-1.3 1.2zM404 223.9c0 .7-.4.9-1 .6-.6-.4-1 .6-1 2.2v2.8l1.5-2.9c.9-1.6 1.3-3.1 1-3.4-.3-.3-.5 0-.5.7zM420.8 223.7c.7.3 1.6.2 1.9-.1.4-.3-.2-.6-1.3-.5-1.1 0-1.4.3-.6.6zM708 227.3c0 2.6 9.7 31 16.5 48.2 2.6 6.6 5.5 14 6.5 16.5s3.7 9 6 14.5c5 12.1 19.4 64.6 21.5 78.5.4 2.5 1.5 7.9 2.5 12 3.9 15.7 4 16.4 2.7 19.4-.6 1.1-.5 2.2.3 3 .8.8 1 .7.5-.5-.4-1-.2-2 .4-2.4.6-.3 1.1.2 1.1 1.2 0 1.5.2 1.6 1 .3.8-1.2 1-1.1 1 .7 0 1.2-.6 2.3-1.2 2.6-1 .3-1 .7 0 2 .8.9 1.1 2.1.7 2.7-.4.6-.8 3.3-.8 6-.2 3.8.2 5 1.5 5.3 1.1.3 1.5 1.1 1.1 2.6-.3 1.2-.1 2.1.6 2.1.6 0 1.1-.8 1.2-1.8 0-1.1.2-1.2.6-.4.3.7-.2 2.1-1.2 3.2-1.1 1.2-1.3 2-.5 2.5s.8 1.1.1 1.9c-.6.7-.8 1.6-.4 2 1 1 1.3 2.9 1.9 13.6.4 5.2 1 9.6 1.5 9.8.5.2.9 1.3.9 2.5 0 3.7 1.7.2 5.4-11.3 7.1-22 9.8-39.5 9.7-65.1 0-19.3-2.2-37.4-6.6-55.9-3.1-12.7-4.3-16-6.1-16-.9 0-1.4-1.1-1.4-2.8 0-1.5-.7-4.8-1.5-7.5-.8-2.6-1.1-4.7-.8-4.7.3 0 .1-.6-.4-1.3-.6-.6-2.4-5.8-4.2-11.3-3.1-10.2-10-27.8-10.7-27.2-.2.2 1.2 5.5 3 11.8 9 30.5 16.7 59.5 16.4 61.9l-.3 2.6-2.2-3.5c-1.1-1.9-6.4-11.4-11.6-21-5.2-9.6-13.6-24.3-18.7-32.5-5.1-8.3-15.1-26.6-22.2-40.8-7.1-14.1-13.1-25.7-13.3-25.7-.3 0-.5 1-.5 2.3zm69.9 105.2v2l-.9-2c-.5-1.1-.9-2.7-.9-3.5-.1-1.3 0-1.3.9 0 .5.8.9 2.4.9 3.5zM771 435c0 .5-.5 1-1.1 1-.5 0-.7-.5-.4-1 .3-.6.8-1 1.1-1 .2 0 .4.4.4 1zm2.7 36.2c-.3.8-.6.5-.6-.6-.1-1.1.2-1.7.5-1.3.3.3.4 1.2.1 1.9zM371 228c0 .5.7 1 1.6 1 .8 0 1.2-.5.9-1-.3-.6-1-1-1.6-1-.5 0-.9.4-.9 1zM428 227.9c0 .6.4 1.3 1 1.6.6.3.7-.1.4-.9-.7-1.8-1.4-2.1-1.4-.7zM376 230.4c0 .9.5 1.6 1 1.6.6 0 1-.4 1-.9 0-.6-.4-1.3-1-1.6-.5-.3-1 .1-1 .9zM401 232.6c0 1.4.4 2.3.9 2 .5-.3.7-1.5.4-2.6-.7-2.8-1.3-2.5-1.3.6zM403.9 233.2c-.1 1.3-.2 3.5-.3 5-.1 1.6.2 2.8.6 2.8.4 0 .8-2.3.8-5 0-4.9-.9-7.1-1.1-2.8zM350.6 233.6c-.9.8-1.6 2.1-1.5 2.7 0 .9.2.8.6-.1.2-.6 1.1-1.2 1.8-1.2s1.5-.7 1.9-1.5c.7-2-.8-1.9-2.8.1zM614.4 234.5c.1 1.6.7 4.1 1.3 5.5 1.5 3.5 4 12.2 5.9 20.5.9 3.8 2.7 10.1 4 13.9 1.3 3.8 2.4 7.8 2.4 8.8 0 1 .7 2.1 1.5 2.4.8.4 1.3.9 1.1 1.3-.3.4-.1 1.3.5 2.1 1.3 2.2 1.1.1-.7-7.7-.9-3.7-1.7-7.5-1.9-8.4-.6-2.9-5.3-17.4-8-24.4-1.5-3.9-3.5-9.3-4.6-12-1.4-3.8-1.8-4.3-1.5-2zM191 234c0 .5.7.7 1.5.4.8-.4 1.5-.8 1.5-1 0-.2-.7-.4-1.5-.4s-1.5.4-1.5 1zM400 238.5c-.1 1.7-.3 5.7-.5 9l-.4 6 .9-5.3c.6-2.9 1.5-6.3 2.1-7.4.9-1.6.7-2.4-.5-3.6-1.5-1.5-1.6-1.4-1.6 1.3zM429.5 238.3c-1 .8-1.5 2.1-1.2 3.3.4 1.7.5 1.6.6-.4.1-1.4.7-2.2 1.9-2.1 1 0 1.2.3.5.6-.7.2-1.3 1.2-1.2 2.1 0 1.1.2 1.2.6.4.2-.6.9-1 1.4-.6.5.3.9-.4.9-1.5 0-2.6-1.3-3.3-3.5-1.8zM491.2 241.8c-.6 2.9-1.2 7.4-1.2 10 0 6.8 2.9 29.2 4 31.1.8 1.4.9 1.3 1-.4 0-1.1.4-2.6.9-3.4 1.2-1.9 3.8.1 4.3 3.1.2 1.2 1.4 2.5 2.7 3l2.4.8-.6-8.2c-.8-11.8-4.8-35.8-5.9-35.8-.6 0-.7 1.1-.4 2.5.6 2.4.4 2.5-2.1 2.2-2.5-.3-2.8-.8-3.3-5.3l-.5-4.9-1.3 5.3zM613.2 241c0 1.4.2 1.9.5 1.2.2-.6.2-1.8 0-2.5-.3-.6-.5-.1-.5 1.3zM348.1 243.6c0 1.1.3 1.4.6.6.3-.7.2-1.6-.1-1.9-.3-.4-.6.2-.5 1.3zM402.7 243.4c-.3.8.2 1.6 1.3 1.9 1.2.3 1.7 0 1.6-1.1-.4-2.1-2.2-2.7-2.9-.8zM428 247.5c0 .8.2 1.5.4 1.5s.6-.7 1-1.5c.3-.8.1-1.5-.4-1.5-.6 0-1 .7-1 1.5zM432.6 248.4c-.8 3.2-.1 4.5 1.6 2.8.8-.8.8-1.8.1-3.4-1-2.2-1-2.2-1.7.6zM348.1 248.6c0 1.1.3 1.4.6.6.3-.7.2-1.6-.1-1.9-.3-.4-.6.2-.5 1.3zM261.6 252.5c-.3.8-.1 1.5.4 1.5.6 0 1-.7 1-1.5s-.2-1.5-.4-1.5-.6.7-1 1.5zM431.6 253.9c-.3.5.1 1.1.9 1.4.9.4 1.2.1.8-.9-.6-1.6-1-1.7-1.7-.5zM252.1 260.6c0 1.1.3 1.4.6.6.3-.7.2-1.6-.1-1.9-.3-.4-.6.2-.5 1.3zM436 259.9c0 .5.5 1.3 1 1.6.6.3 1 .2 1-.4 0-.5-.4-1.3-1-1.6-.5-.3-1-.2-1 .4zM761.5 262c-.3.5-.1 1 .4 1 .6 0 1.1-.5 1.1-1 0-.6-.2-1-.4-1-.3 0-.8.4-1.1 1zM260.7 267.5c-.4.8-.2 1.7.3 2 .6.4 1-.3 1-1.4 0-2.5-.6-2.7-1.3-.6zM775 268.5c.7.8 1.7 1.5 2.2 1.5.6 0 .5-.7-.2-1.5s-1.7-1.5-2.2-1.5c-.6 0-.5.7.2 1.5zM761 270.8c0 .5.7 1.3 1.6 1.6 2.2.8 2.4.8 2.4-.6 0-.6-.3-.8-.7-.5-.3.4-1.2.2-2-.4-.8-.7-1.3-.8-1.3-.1zM764.4 274.8c-.6.4-.8 1.8-.4 3.2.6 2.4.7 2.4 1.1-.8.3-1.7.5-3.2.5-3.2-.1 0-.6.4-1.2.8zM788.1 275.4c-.1 1.2-.6 1.6-1.5 1.3-1-.4-1.3-.1-.9.9.5 1.4.7 1.4 2.1.1.8-.8 1.2-2.1.9-2.9-.4-.8-.6-.7-.6.6zM766.6 275.8c-.3.5.1.9.9.9s1.2-.4.9-.9c-.3-.4-.7-.8-.9-.8-.2 0-.6.4-.9.8zM790.2 279c0 1.4.2 1.9.5 1.2.2-.6.2-1.8 0-2.5-.3-.6-.5-.1-.5 1.3zM766 280.1c0 .5.5.7 1 .4.6-.3 1-.8 1-1.1 0-.2-.4-.4-1-.4-.5 0-1 .5-1 1.1zM787.5 280c-.3.5-.1 1 .4 1 .6 0 1.1-.5 1.1-1 0-.6-.2-1-.4-1-.3 0-.8.4-1.1 1zM366.5 294.6c.7 21.5 6.8 47.8 17.7 75.7 4.8 12.4 21.5 46.8 23.8 49.1 1.1 1.1-4.6-12.2-12.3-28.4-7.9-17-15.5-38.1-20.1-56.5-4.4-17.3-9.1-42.8-8.3-44.3.3-.4.1-2.7-.4-5.2-.5-2.9-.7.4-.4 9.6zM787.5 282.9c-.3.5-.1 1.2.5 1.6.5.3 1-.1 1-.9 0-1.8-.6-2.1-1.5-.7zM792.8 285.6c-.8.8.3 4.4 1.3 4.4.5 0 .8-.9.6-2-.4-2.3-1.1-3.2-1.9-2.4zM494.3 292.5c0 3.8.2 5.3.4 3.2.2-2 .2-5.2 0-7-.2-1.7-.4-.1-.4 3.8zM771.4 292.4c-.3.8-.2 2.2.3 3.1.8 1.3 1 1 1-1.4 0-3.4-.5-3.9-1.3-1.7zM790.1 292.6c0 1.1.3 1.4.6.6.3-.7.2-1.6-.1-1.9-.3-.4-.6.2-.5 1.3zM202.1 300.3c-.1 1.1-.6 1.5-1.3 1.1-.7-.5-.8-.3-.3.5 1 1.6 2.9-.2 2.2-2.1-.4-.8-.6-.7-.6.5zM199.6 308.5c.4.8.8 1.5 1 1.5.2 0 .4-.7.4-1.5s-.4-1.5-1-1.5c-.5 0-.7.7-.4 1.5zM636.6 312.6c.2 3.3 1.4 10.2 2.8 15.4 2.6 9.5 2.6 9.5 2.1 3.5-.2-3.3-.7-7.4-1.1-9.2l-.6-3.2 6.3-.3 6.4-.3-6.5-1c-6-.9-6.5-1.2-7.4-4-1.9-6.4-2.2-6.5-2-.9zM198.3 313.9c0 1.1.5 1.8.9 1.5.4-.3.5-1.1.1-1.9-.7-2.1-1.2-1.9-1 .4z"/><path d="M776.1 324.6c0 1.1.3 1.4.6.6.3-.7.2-1.6-.1-1.9-.3-.4-.6.2-.5 1.3zM644.1 348.6c0 1.1.3 1.4.6.6.3-.7.2-1.6-.1-1.9-.3-.4-.6.2-.5 1.3zM645.1 354.6c0 1.1.3 1.4.6.6.3-.7.2-1.6-.1-1.9-.3-.4-.6.2-.5 1.3zM573.5 392.7c-6.5 1.6-18.2 6-26 10-10.4 5.3-23 13.2-22.2 13.9.3.3 3.2-1.2 6.4-3.4 11.1-7.5 28.5-14.8 41.7-17.6 3.3-.7 6.2-1.8 6.4-2.4.4-1.2-2.4-1.4-6.3-.5zM760.6 404.3c.3 1 .9 1.5 1.2 1.2.3-.3 0-1.1-.7-1.8-1-.9-1.1-.8-.5.6zM762 408.9c0 .6.4 1.3 1 1.6.6.3.7-.1.4-.9-.7-1.8-1.4-2.1-1.4-.7zM764.5 433c.3.5.8 1 1.1 1 .2 0 .4-.5.4-1 0-.6-.5-1-1.1-1-.5 0-.7.4-.4 1zM766.5 455c-.4.6-.1.9.7.8.7-.2 1.2.2 1.1.9-.2.7.4 1 1.3.6.8-.3 1.4-.6 1.2-.7-.2-.1-1-.7-2-1.4-1.1-.9-1.8-1-2.3-.2zM567 473.5c-.6.8-1 1.9-.8 2.6.2.6.9 0 1.6-1.5 1.3-2.9 1-3.3-.8-1.1zM619.8 476.6c-.9.9-3.9 1.9-6.7 2.2-2.8.2-5.1.6-5.1.9 0 1.7 3.3 6.1 4.8 6.5 1.7.5 1.8 1.1 1.1 6.7-1.4 10.1-6.3 21.3-12.5 28.4-2.9 3.4-7.2 7.1-9.5 8.3-3.3 1.6-3.8 2.2-2.5 2.7 1 .4 1.4 1.1 1.1 1.7-1.1 1.7 2.4 1.1 6.8-1.2 2.3-1.2 4.9-2.3 5.7-2.4 2.2-.4 8.5-8.1 11.9-14.4 4.8-9.1 7.2-18.5 7.8-30.3.6-10.9.2-12.2-2.9-9.1zM364.6 481.7c1.8 8.3 3.5 11.9 5.5 12 1.2.1 2.4.5 2.8.8 1.8 1.9-.4 20-3.5 27.9-.4 1.2-.4 1.7.2 1.3.6-.3 1.5-.2 2.2.2 1.7 1.1-2 6.5-6.9 10.1-2.3 1.6-3.6 3-2.9 3 2.5 0 9.9-6.5 11.4-10 4.2-9.5 6.8-30.4 5.2-41.4l-.7-4.8-3.9.7c-2.6.4-4.8.1-6.9-1l-3.2-1.6.7 2.8zM565.5 480c.3.5.8 1 1.1 1 .2 0 .4-.5.4-1 0-.6-.5-1-1.1-1-.5 0-.7.4-.4 1zM582.1 484.7c0 .6-1.3 2.5-2.7 4.2-2 2.4-2.2 3.1-1 3.1 2.1 0 4.9-4.4 4.3-6.7-.3-1-.5-1.3-.6-.6zM347.1 491.9c-.1.8-.9 2-1.8 2.7-1 .7-1.3 1.4-.7 1.4 1.7 0 3.7-2.7 3.1-4.2-.4-1-.6-1-.6.1zM325.2 522.1c-2.8.8-3.1 1.2-2.2 2.9 3.7 6.8 14.5 13.5 23.6 14.5l4.9.6-7-2.5c-3.8-1.4-7.1-2.6-7.3-2.6-.2 0-.1-1.2.2-2.8.5-2.2-.1-3.5-3.5-7-2.2-2.3-4.4-4.2-4.7-4.1-.4 0-2.2.5-4 1zM550.8 523.4c-1.6 2.3-1.6 2.4 2 5.9 5.5 5.4 12.1 7.9 22.2 8.4 4.7.3 9.6 0 11-.5 2.1-.9 1.3-1.1-4.4-1.1-5.3-.1-6.7-.4-6.3-1.5.4-.9-1.5-2.2-6.2-4-3.8-1.5-8.6-4.2-10.9-6.1-2.2-1.9-4.4-3.5-4.9-3.5-.4 0-1.6 1.1-2.5 2.4zM749.1 529.1c-1.2 1.9-2.1 4.3-2 5.4 0 1.3.9.3 2.5-2.8 2.9-5.6 2.5-7.6-.5-2.6zM396.7 537.7c-.8 1-2 3.1-2.6 4.6-1.1 2.8-1.5 8.7-.7 8.7.2 0 1.1.3 2 .6 1.3.5 1.6-.1 1.6-2.7 0-1.9.5-5.4 1.1-7.8 1.1-5.1.8-5.8-1.4-3.4zM481.5 667.9c-12.1 3.1-35.5 10.2-53.6 16.2-6.4 2.2-12.6 3.9-13.7 3.9-1.1 0-2.3.4-2.7.9-.3.5-2.2 1.5-4.3 2.1-2 .6-4.6 1.5-5.7 2-10.6 4.3-12 4.8-12.6 3.8-.4-.7-1-.5-1.5.5-.5.8-1.8 1.7-2.9 1.9-1.1.1-2.3.7-2.7 1.3-.5.6-.8.4-.8-.5 0-1.3-.2-1.3-.9-.1-.5.8-2 1.6-3.3 1.8-1.3.2-2.4.8-2.6 1.3-.2.5-.9.7-1.6.4-.7-.3-1.8.5-2.5 1.8-.9 1.8-1.1 1.9-.6.3.4-1.5 0-1.3-1.6.8-1.7 2.2-2.4 2.6-3.1 1.5-.8-1-.9-1-.5.2.2.8-.7 2.7-2.1 4.2-1.4 1.5-2.4 3-2.1 3.2.6.6 21-3.9 40.6-8.8 9.8-2.5 22.8-5.5 28.8-6.6 24.5-4.6 67.6-19.6 76-26.4 2.5-2.1 2.7-2.4.8-1.9-1.8.4-2.1.2-1.6-1.8 1.5-5.6-6.6-6.3-23.2-2zM166.5 387.1c-.4.6-.5 1.2-.2 1.5.2.3.7-.2 1-1.1.7-1.7.1-2-.8-.4zM164 391.4c0 .9.7 1.6 1.6 1.6.9 0 1.4-.5 1.2-1.2-.6-1.8-2.8-2.1-2.8-.4zM159.8 396.5c-.4 1.6-.3 3.4.1 3.8 1.2 1.2 1.9-1.4 1.1-4.3-.6-2.5-.6-2.5-1.2.5zM164 395.9c0 .7-.4.9-1 .6-.5-.3-1-.1-1 .4 0 .6.4 1.1.9 1.1 1.3 0 2.5-2 1.7-2.7-.3-.4-.6-.1-.6.6zM162 400.2c0 .4.7.8 1.5.8s1.5-.4 1.5-.8c0-.5-.7-.9-1.5-.9s-1.5.4-1.5.9zM146.5 464c-.3.5.1 1 .9 1 .9 0 1.6-.5 1.6-1 0-.6-.4-1-.9-1-.6 0-1.3.4-1.6 1zM173.7 498.5c1.1 2.3 2.4 3.5 3.7 3.5 1.7 0 1.6-.5-1.4-3.5-1.9-1.9-3.5-3.5-3.7-3.5-.1 0 .5 1.6 1.4 3.5zM185.1 497.6c0 1.1.3 1.4.6.6.3-.7.2-1.6-.1-1.9-.3-.4-.6.2-.5 1.3zM178 507.1c0 .5.5.7 1.2.3.7-.4.8-.3.4.4s.2 3.3 1.4 5.9c1.6 3.7 2.3 4.4 3 3.3 1.3-2 1.3-3.3 0-2.5-.6.4-.8-.7-.6-2.7.2-1.8-.1-3.9-.6-4.6-1.3-1.5-4.8-1.6-4.8-.1zM203.5 544c.3.5.8 1 1.1 1 .2 0 .4-.5.4-1 0-.6-.5-1-1.1-1-.5 0-.7.4-.4 1zM714.6 532.2c.3.5 1 .6 1.5.3 1.3-.9 1.1-1.2-.6-1.2-.8 0-1.2.4-.9.9zM794.4 713.3c.3 1.4.3 2.8-.1 3-.5.3-4.1-.5-8.1-1.8-3.9-1.3-7.2-2-7.2-1.6 0 .4 2.9 2.2 6.5 4 8.4 4.3 11.8 3.8 11.3-1.6-.2-2-.9-3.9-1.7-4.1-1-.3-1.2.2-.7 2.1zM778.1 735c2.6 4.6 5.9 8 5.9 6.1 0-1.7-5.9-10.1-7.1-10.1-.6 0 0 1.8 1.2 4zM757 737.4c0 .9 14.9 8.2 19 9.3 4.1 1.2 8 .1 8-2.2 0-1.7-1.6-2-2.5-.5-.8 1.3-4.6.2-23.2-6.7-.7-.3-1.3-.2-1.3.1zM728 753.6c3.5 4.1 39.9 18.4 43.5 17 2.1-.7 1.3-3.6-2.3-9-2.6-3.8-9.7-9.4-10.8-8.4-.3.3 1.3 2 3.5 3.7 3.9 3.1 8.1 8.8 8.1 10.9 0 2-19.8-4.8-33.2-11.5-9.6-4.7-10.7-5.1-8.8-2.7zM757 792.4c0 1.8-2.1 2-6.7.7-5.4-1.6-4.7.6.7 2.4 4 1.3 5.4 1.4 6.5.5 1.7-1.4 2-3.6.5-4.5-.5-.3-1 .1-1 .9zM712 802.4c0 .3 3.5 1.2 7.8 2.1 13.8 3 21.1 5.5 22.2 7.5 1 1.8.7 2-2.5 2-2.2 0-3.4.4-3 1 .9 1.5 5.1 1.2 6.5-.5 1.9-2.3.7-4.9-3.2-6.8-5.2-2.5-27.8-6.8-27.8-5.3zM716.1 937.6c0 1.1.3 1.4.6.6.3-.7.2-1.6-.1-1.9-.3-.4-.6.2-.5 1.3zM699.6 939.7c-.3.4-.6 1.1-.6 1.6 0 .6.3.7.6.4.4-.3 1.5-.2 2.5.4 2.4 1.3 2.4.8 0-1.3-1.1-.9-2.2-1.4-2.5-1.1zM955.6 396.5c-.3.9-.1 2.4.5 3.3 1 1.6 1 1.6.5 0-.3-.9-.1-1.8.4-2 .5-.2.6-.9.1-1.6-.7-1.1-1-1-1.5.3zM964.5 399.1c-.4.6-.5 1.2-.2 1.5.2.3.7-.2 1-1.1.7-1.7.1-2-.8-.4zM924.1 404.6c0 1.1.3 1.4.6.6.3-.7.2-1.6-.1-1.9-.3-.4-.6.2-.5 1.3zM955.9 411.8c.6 1.1.8 2.9.4 3.8-.6 1.6-.5 1.7.9.4 2-1.9 1.7-5.4-.5-5.8-1.6-.3-1.7-.1-.8 1.6zM923.6 431.3c.3 1 .9 1.5 1.2 1.2.3-.3 0-1.1-.7-1.8-1-.9-1.1-.8-.5.6z"/></svg>